<mxfile host="app.diagrams.net" agent="Mozilla/5.0 (Macintosh; Intel Mac OS X 10_15_7) AppleWebKit/537.36 (KHTML, like Gecko) Chrome/129.0.0.0 Safari/537.36" version="24.8.3">
  <diagram name="페이지-1" id="L4qNUync13KMkfPs_pbR">
    <mxGraphModel dx="1964" dy="658" grid="1" gridSize="10" guides="1" tooltips="1" connect="1" arrows="1" fold="1" page="1" pageScale="1" pageWidth="980" pageHeight="1390" math="0" shadow="0">
      <root>
        <mxCell id="0" />
        <mxCell id="1" parent="0" />
        <mxCell id="q4eiFpsEOsDT-pMDmDDZ-1" value="" style="whiteSpace=wrap;html=1;aspect=fixed;" vertex="1" parent="1">
          <mxGeometry x="500" y="170" width="290" height="290" as="geometry" />
        </mxCell>
        <mxCell id="q4eiFpsEOsDT-pMDmDDZ-44" value="" style="outlineConnect=0;dashed=0;verticalLabelPosition=bottom;verticalAlign=top;align=center;html=1;shape=mxgraph.aws3.ec2;fillColor=#F58534;gradientColor=none;" vertex="1" parent="1">
          <mxGeometry x="616.75" y="352" width="76.5" height="93" as="geometry" />
        </mxCell>
        <mxCell id="q4eiFpsEOsDT-pMDmDDZ-45" value="" style="outlineConnect=0;dashed=0;verticalLabelPosition=bottom;verticalAlign=top;align=center;html=1;shape=mxgraph.aws3.ec2;fillColor=#F58534;gradientColor=none;" vertex="1" parent="1">
          <mxGeometry x="616.75" y="193" width="76.5" height="93" as="geometry" />
        </mxCell>
        <mxCell id="q4eiFpsEOsDT-pMDmDDZ-46" value="" style="outlineConnect=0;dashed=0;verticalLabelPosition=bottom;verticalAlign=top;align=center;html=1;shape=mxgraph.aws3.elastic_load_balancing;fillColor=#F58534;gradientColor=none;" vertex="1" parent="1">
          <mxGeometry x="340" y="288.5" width="76.5" height="93" as="geometry" />
        </mxCell>
        <mxCell id="q4eiFpsEOsDT-pMDmDDZ-47" value="" style="endArrow=none;html=1;rounded=0;" edge="1" parent="1" source="q4eiFpsEOsDT-pMDmDDZ-46" target="q4eiFpsEOsDT-pMDmDDZ-45">
          <mxGeometry width="50" height="50" relative="1" as="geometry">
            <mxPoint x="490" y="330" as="sourcePoint" />
            <mxPoint x="540" y="280" as="targetPoint" />
          </mxGeometry>
        </mxCell>
        <mxCell id="q4eiFpsEOsDT-pMDmDDZ-48" value="" style="endArrow=none;html=1;rounded=0;" edge="1" parent="1" source="q4eiFpsEOsDT-pMDmDDZ-46" target="q4eiFpsEOsDT-pMDmDDZ-44">
          <mxGeometry width="50" height="50" relative="1" as="geometry">
            <mxPoint x="500" y="340" as="sourcePoint" />
            <mxPoint x="627" y="295" as="targetPoint" />
          </mxGeometry>
        </mxCell>
        <mxCell id="q4eiFpsEOsDT-pMDmDDZ-52" value="" style="endArrow=none;html=1;rounded=0;" edge="1" parent="1" source="q4eiFpsEOsDT-pMDmDDZ-44" target="q4eiFpsEOsDT-pMDmDDZ-45">
          <mxGeometry width="50" height="50" relative="1" as="geometry">
            <mxPoint x="550" y="430" as="sourcePoint" />
            <mxPoint x="600" y="380" as="targetPoint" />
          </mxGeometry>
        </mxCell>
        <mxCell id="q4eiFpsEOsDT-pMDmDDZ-55" value="" style="endArrow=none;html=1;rounded=0;" edge="1" parent="1" source="q4eiFpsEOsDT-pMDmDDZ-60" target="q4eiFpsEOsDT-pMDmDDZ-46">
          <mxGeometry width="50" height="50" relative="1" as="geometry">
            <mxPoint x="288.9499999999998" y="335" as="sourcePoint" />
            <mxPoint x="390" y="330" as="targetPoint" />
          </mxGeometry>
        </mxCell>
        <mxCell id="q4eiFpsEOsDT-pMDmDDZ-58" value="AWS&lt;br&gt;Elastic BeanStalk&lt;div&gt;&lt;br&gt;&lt;/div&gt;" style="text;strokeColor=none;align=center;fillColor=none;html=1;verticalAlign=middle;whiteSpace=wrap;rounded=0;" vertex="1" parent="1">
          <mxGeometry x="348.25" y="410" width="60" height="30" as="geometry" />
        </mxCell>
        <mxCell id="q4eiFpsEOsDT-pMDmDDZ-59" value="" style="shape=image;verticalLabelPosition=bottom;labelBackgroundColor=default;verticalAlign=top;aspect=fixed;imageAspect=0;image=data:image/png,iVBORw0KGgoAAAANSUhEUgAAAlgAAAIICAYAAACy6JArAAAAAXNSR0IArs4c6QAAAERlWElmTU0AKgAAAAgAAYdpAAQAAAABAAAAGgAAAAAAA6ABAAMAAAABAAEAAKACAAQAAAABAAACWKADAAQAAAABAAACCAAAAACXj01TAABAAElEQVR4Aey9CZwU9Zn//1R3zz3AMNyHMIAgp4AXosI0GqMiCJhoNskmQnajiTIKJpvsbzcb8b9JdmMO0dFkY7IRs4lmTTYgA2jiQYOi0aiA98WlAgoCwznMTHfV/3lquoc5umeququq6/gUr6G7q77H87y/dTz1fL/f50uEDQRAAARAAARAAARAAARAAARAAARAAARAAARAAARAAARAAARAAARAAARAAARAAARAAARAAARAAARAAARAAARAAARAAARAAARAAARAAARAAARAAARAAARAAARAAARAAARAAARAAARAAARAAARAAARAAARAAARAAARAAARAAARAAARAAARAAARAAARAAARAAARAAARAAARAAARAAARAAARAAARAAARAAARAAARAAARAAARAAARAAARAAARAAARAAARAAARAAARAAARAAARAAARAAARAAARAAARAAARAAARAAARAAARAAARAAARAAARAAARAAARAAARAAARAAARAAARAAARAAARAAARAAARAAARAAARAAARAAARAAARAAARAAARAAARAAARAAARAAARAAARAAARAAARAAARAAARAAARAAARAAARAAARAAARAAARAAARAAARAAARAAARAAARAAARAAARAAARAAARAAARAAARAAARAAARAAARAAARAAARAAARAAARAAARAAARAAARAAARAAARAAARAAARAAARAAARAAARAAARAAARAAARAAARAAARAAARAAARAAARAAARAAARAAARAAARAAARAAARAAARAAARAAARAAARAAARAAARAAARAAARAAARAAARAAARAAARAAARAAARAAARAAARAAARAAARAAARAAARAAARAAARAAARAAARAAARAAARAAARAAARAAARAAARAAARAAARAAARAAARAAARAAARAAARAAARAAARAAARAAARAAARAAARAAARAAARAAARAAARAAARAAARAAARAAARAAARAAARAAARAAARAAARAAARAAARAAARAAARAAARAAARAAARAAARAAARAAARAAARAAARAAARAAARAAARAAARAAARAAARAAARAAARAAARAAARAAARAAARAAARAAARAAARAAARAAARAAARAAARAAARAAARAAARAAARAAARAAARAAARAAARAAARAAARAAARAAARAAARAAARAAARAAARAAARAAARAAARAAARAAARAAARAAARAAARAAARAAARAAARAAARAAARAwPsEFO+rAA1AAATySeCmP13SJ1KQGJfQ1EJSQqqiKZrIoyjqBZpCxanfsk8jNUwKHdPU8HthRfs4QRRpSUuRiBZ68845T+3h43p+2Y8NBEAABLxKAAaWV1sOcoOA3QQ0UmoejQ7RVPWskBoaw4ZPOdtO49j8qeCqB/Hf6fxXYocYbGFtZztrB1tpB7j8rZpG8ZCiPaOqtPfjkwPe/8O1f2DbDBsIgAAIuJcADCz3tg0kAwHHCCx9bHplc1PhNEVRzuZKJ7KvaSp/juQ/3cPkmCDGK9rKSd9lQ+xd9pe9GlISm+6a+8z7xrMjJQiAAAjYSwAGlr18UToIuI7A9XVnlxZSj/NCmnqhFqJzSVOms5B9+S/kOmHNCXSQvWsx1uI1TaW/avHIC/cuePIguhzNQURqEAABawjAwLKGI0oBAdcS+OafP13W3NQ0NUHabL7gr2RBJ/Bf2LUCWygYe7i2hEh7LKEqT5VR/K93zNt01MLiURQIgAAIZCQAAysjGhwAAe8SuHFtdGA4oc1SFPoCGxkXsyal3tXGMslPcknPMY//KShoeuTOy587aFnJKAgEQAAEOhCAgdUBCH6CgFcJLF1z0ciEFl7IBsQ81iEwXqos26uZ873C3Yd/ori6qs+Wp99atozULMtCNhAAARDoRAAGVick2AEC3iGwtO7iIQlKfJmNqi+y1GJUYTNPQGVD6y2eqfiIqiq//tm82Hvmi0AOEAABEGhPAAZWex74BQKeIFBTVz2XBV3CfzP4r8ATQntHyM08i/InjXR85X1zXzrhHbEhKQiAgJsIwMByU2tAFhDIRIBjUt2yetaYRFj7kqJpX+NkfTIlxX7LCHzCXq0/UVj55T1Xxl60rFQUBAIgEAgCMLAC0cxQ0qsElj48vSReUnQlKeoSDqcwjfVwa1wqryI2IreMzdqkKaHv3zNn/Z+NZEAaEAABEICBhXMABFxI4FuPXNijIVRwnUbaUr5IJeAntvwTkOjx23gRoNqiwsL7f3zZX47nXyRIAAIg4FYCMLDc2jKQK5AEZF2/UCR+Ew+6XswA+gUSgjeUPsJi/qK5ufnH/3X1s/vcJvLX/nRB/4KCgr+rnbvhbrfJBnlAICgEYGAFpaWhp6sJ1Ky7oojUE1/hSOT/woIOdbWwEK4tgeMKKT/Wwg0/rZ39vBhd+d9kDcm66HWkaL+IK4mBP5/zzKH8CwUJQCB4BGBgBa/NobGLCMiyNcXUg4OBat9gsca6SDSIYo7AMfY6/kftnA0/MJfN+tQ3180czTbWb7jkqRy+4+vHypWHVsyKSZBVbCAAAg4SwIBZB2GjKhBIEVi4Plrc8zjNVzXtu2xcjeH9gVi6JqW/Dz/L2fv4fQ6fcT0vmP3PlWX0x2WzYvF86KlpoQvZe3U+192kKNq8inplJX+HgZWPxkCdgSbg9cVdA914UN6bBG5eUz2r/Jga0zTtIXYhj2MtYFx5synTST2c2/V3B45pz968ZuYF1zx8jaNtW7Pu4lE84/SzScEKeebpvHiEBqYTFPtAAATsJQADy16+KB0EWgksXj1zxOK66oc4ttJTPG5HQi5g8ycBua+eq2nKxkEl+36pGz0O6aklEjN5lqMs6N26KYo6T2altu7AFxAAAUcIwMByBDMqCToBHhdzE3cdvcweq78LOosA6R/mMVCLKJF4dXHdzFskppmdut+0etYEhbTrOtbBht7M5lBRz4778RsEQMBeAjCw7OWL0gNO4Ka1Fw+/ua66jgcd38MoKgKOI6jql7DHcnm8pHDDTXUzzrILQkhRZ7P3qrpj+WzUz24OxSs77sdvEAABewnAwLKXL0oPMAE2rG4NqYm/sRdjToAxQPVTBM4NUei5mrqZ/77s4QmFp3bn/m3x6uoreBbjjZlKCiXoqhsfjpZnOo79IAAC1hOAgWU9U5QYYALLllFocV10LI+1WsuG1X8yCgQLDfD5kEZ1NqyU7xwo6ftYTd2syWmOZ7VLUeizPIuxKlNmTVFmFxQpQzIdx34QAAHrCcDAsp4pSgwoAQm9cODsmZ/ncTAx6ZZhDAUBRQG1uycwi0h97Oa66D92n7TrFDx54h84xYKuU9EFCSUBA6sbSDgMAlYSgIFlJU2UFVgCNeuiQ8uPaQ+yd+K3DGFAYEFAcTMEBnIMtJ/XrK5+NNtZfksfm17Jkye+yJX2loqbE43Ur2wIXTR8HjWrTe1kUZTQ7Jp10zDYvR0V/AAB+wjAwLKPLUoOCAHuEoxSQnucvVbdeRECQgRqmiAQ4bFTn24IRTbLeWQ2bla8qeDfuK6o1BdXm6mkoJwuGDaHrjzjHygc6hhHWpumxktPk7TYQAAE7CcAA8t+xqjBxwRuXl39Je4SfJxVxDI3Pm5nm1WT+/BIPo/+Mqh4/1Kjg9HZ8/V5UhQJKsq2PVFD81Ea3WcKXTLq8/xLozMHXCi7eePRgC3bRRzZfXTqBz5BAATsJQADy16+KN2vBDjuAkdkv1dT6DesYkdXgV+1hl72ERAjqUBTtB9FStQf1ayb0eXkCOlS5LS3cB59YfDG+Aka2ms0TTvtCl3CgnAxTRxwEVtebLa1lVmhc9r+xHcQAAH7CMDAso8tSvYpgetfPLuAjavfckT2jNPifao61HKAANvuX1MSoV8vXXPRyEzVNYQjv2LjaYoc1zSVuwfjNHnQTDpr8MV6lsJwEZ058CIqKSzXjaxUOYqmzbx5TXRi6jc+QQAE7CMAA8s+tijZhwSWrJk5rnBP+RPsFfiCD9WDSi4hwOfXnDiFn7x5bfTytiJJNPiaNdEl7JaSWapFcuxE8zEa1/9cOm/IZW2TUkGoQDeyCkKFpLIRltxm8PczUz/wCQIgYB8BGFj2sUXJPiNw0yPVlyY05VGOOcTrvWEDAZsJcFwrVdV+dfPqmdemaoqXRCaxy+o2/l0m+2Rge1lhT5o14loaVtF+GGCEDatJ3E0YCfOaz6cMLPZohWyLJp+SE58gAALJwZEAAQIgkJmAdAkWf9TjM5qmyXI3fTKnxBEQsIXAPg7nsFQJN66hRPGzXMOEVC2HGj6mz5/5TzT7jK+kdnX6/H7sOtp7dDuPhw+1jMnSaKOiql+vnf/0G50SYwcIgIBlBODBsgwlCvIjgW/++dNlhXvLbmTj6jesH4wrPzay+3Xqz+Ot7mPj6lUWtdW4auCuQYl3dd7Q9l2DHdUZ3WcyFUfKWrsJ2QM7XgkpGIfVERR+g4DFBGBgWQwUxfmHgBhXjc0nvyYL9bJWiMrun6b1oibSJTgsJbiqJah3yQC6fMx11JcDi3a1TRx4IZUW9CCVB8Int77syuJI8thAAATsJAADy066KNu7BHgqV1NT0+dJU37sXSUguV8JKEqYFp39XRpeMa5bFcf3m6YbWAk2ylo3RRm1+JELB7f+xhcQAAHLCcDAshwpCvQDgcVrqv+Jx7380g+6QAf/EOBzUlfm82d+k0ZV6lEaDCk3ib1YvYr76IPiJQOHGJmgKJFqQ5mRCARAICsCMLCywoZMfiYg0+A56uMP/awjdPMeAekWLAqX0BVjFtE5Qz5FEuvK6DaiciKVF/amxKluwsE86v1so/mRDgRAwDwBGFjmmSGHjwksrpt5C7/e/9THKkI1DxIQw0jGUc0csYANrOvYuCo2pYV0E1YU92UP1qkFoHnZnDOXPTyh0FRBSAwCIGCYAAwsw6iQ0O8Ebl4z8zoe0P5d1lNf283v+kI/bxAQz5XEsprQfzpdNfaGrIU+rdcZHDOrV6sXizsbhxwq63N+1gUiIwiAQJcEYGB1iQcHg0Kgpi76WU1Tbmd9K4OiM/R0PwHxXIWUiB6O4bqz/i0ngat6j+eZh/1PebE0GpnQQp/OqVBkBgEQyEgABlZGNDgQFAI1q6Pnk6KJcTU8KDpDT/cTkOjrTWojTR1cTQvG577s5dh+Z1O/sqHUlGhMKV/MwbFmpH7gEwRAwFoCMLCs5YnSPEZgyWMzBrFxdSdPzhrvMdEhro8JiHHVED9Ol4z8HC0867sU4XUFc91KC3rSwPLhekT31NI5HNy97y2PzMDahLnCRX4QSEMABlYaKNgVDAISSDTeHPoVa3tOMDSGll4gkDKu5o79Kv0dh2PgtQMtE3tUnzNpSM9R1Jg42VKmRoO0UOhKyypAQSAAAq0ErLtyW4vEFxBwP4Hr684uPdnY+FMezR5laSPulxgSBoEAL8lEJxMn6HOTbqV5475mucpDe43RuwmbT3UT9ubB7ugmtJw0CgQBsvDVCDRBwCMEbnw4Wl6old/Aa7J9hUUu9YjYENPnBCSIqIRRWDj1u/Sp079gi7b9SodQf15ap7lNuAau6PTrH/9UL1sqRKEgEGAC8GAFuPGDqrpSpE1n4+pHrH84qAygt/sIlBX2pK9N+yFNH3YldwvaFylEvFi9i2U2YXMKQq+ik03z2L6zr9JUTfgEgQARgIEVoMaGqkSL186cFArTfcxCjCs8UHBS5JWAeK1CPNL8NDZ6vnXRL2nywJn82167f1B5FQ3qMYLadBOWK0po5rLbcT3k9WRA5b4jAAPLd00KhTIRWFp38RBFDX2bn2lVmdJgPwg4RSChxfWlb8RjVTN9OVWWDnSk6mEVY0liYjUmGlL1lfLYr+rXx1+DF44UEXyCgAUEYGBZABFFeINAguLzeZnbL3pDWkjpZwLNiSbqUVRJs89YxAPav0HFEeeGAhbwGobiwWoTD0tQ9x1Qtn/qsmUYl+vn8w66OUsABpazvFFbngjctDo6h4eY/CBP1aNaEGglcLzpCI3qM4luZq/VxRznKh9bPx7oPoy7Jdt0ExaEEhTdc/bZ5hY5zIfwqBMEPEIABpZHGgpiZk/glrqLhoUU7XouoWf2pSAnCORGQLoEZWD5nLH/QLde+DMa3GNkbgXmkLtv6WB93FczR4pPbkWaos3rQT2cc6WlasYnCPiUAAwsnzYs1DpFIEFhCSg099QefAMBZwk0cWBPMWq+ft4dvOzNTbYPZO9Ou77swZKB9W26CSUW3EUqhYq6y4vjIAACxgjAwDLGCak8SuDmtdHLeeTuNR4VH2L7gEBD8zG6YPhcWnrhvTRp4IWu0EiW3jmt1xncRdjUTp5milcve3hCYbud+AECIJAVAUSwzgobMnmFgJbQvsqTz0/3iryQ0z8EJJZVn9JBdPWEm2h8//Pz7rXqSLaipC+N4NmE9Sf381qHLTaVhGs4UF75OKfd3zE9foMACJgjAAPLHC+k9hCBxXUzb2NxZ3tIZIjqAwKqlqDSgh56NPZZI6+lgqTx4jbVehX308M1vLj7iVYDi8M1zFSbwxLVHQaW2xoM8niOAAwszzUZBDZCQGJexSkh464wK8oIMKTJmUCCDSsxpqYOitIC9lpVsAHj5k3kq+o9gZ57fx2HiSjTReXu9HHhkNLyw83CQzYQ8AABGFgeaCSIaJ5As5b4Ni+HM8F8TuQAAXMENE0llf8keOeVZ/wDdwdOM1dAnlLLOKyqivFtl8zRJVGUxBQOxvsK93DyOtDYQAAEsiWAQe7ZkkM+1xJYsmbmODaupGsQ3ivXtpI/BGuMN1BFST/6+6n/j/5pxn2eMa5S9MsLe9GoyklsICZSu0jTlAtvXBcd0LoDX0AABLIiAA9WVtiQyc0EEqT8G8s31M0yQjZvE0iocSovqqB5426gi4bPp6JIiScVKi4o0+Nx7Tv+4alB+ApdWBBP9GeFPvKkUhAaBFxCAAaWSxoCYuROYNn6aOTAcW06d2x8mktDPJ/ckaKEDgRkZmB5UW+aUTWfZlYt0Aezd0jiqZ9lBb1oZJ8z6eW9T7HcBS2yazReVSK9PaUIhAUBFxKAgeXCRoFI2RHYE4+UFWlNPHNQQcT27BAiVxoCGlvssgpy75IBurdq1shreNZd0hhJk95Lu8TzNqTnSH0MWTu5FXUM/97Qbh9+gAAImCIAA8sULiR2KwEJjnjgZPxSNq5msYwYW+jWhvKQXByygHj4OgfkHE2XjvoiTR08i7vR/Hdq9S0dyuPI+tPJ5uOtrcNjGMfVrJvWs3b280dad+ILCICAKQIwsEzhQmK3EjhQ3q+/Ftdq+MEgzgZsIJA1AVkzMKxE6Jyhn6JPjfoCe3hGZV2WFzIWhAtpaM/TaduBV9hXp7LIMn1QO09RS4bxj9e8oANkBAE3EoCB5cZWgUymCSgJ9UxSlJmmMyIDCCQJyELMg3pU0eRBM2kGD1yXLsEgbIXhIjYi2cA6+CrPIBTzijdNGcffBAAMrCCcBNDRFgIwsGzBikKdJLBkZbRKJe3rTtaJuvxBQByepYU96Yy+Z9EFw+bQyMozfTO+ymgLFYVL6PTKyfT0zpVsWImFpZtYldw9Kh4sbCAAAlkSgIGVJThkcw8BrVAdpqnKHPdIBEncTEA8VRL/aeKAC+jsIZewcTHFs2EWrOAc5gH74sFK+q7aFjm67Q98BwEQMEcABpY5XkjtMgI162b0U9XQF/jV22WSQRw3EWgxqip0o2raaZfRyN4TqSCMOLSpNiot7EGVpQPpwPE9+sB+8ezxcP7TFz9y4eB75m3ak0qHTxAAAeMEYGAZZ4WUbiQQj4wnRf2MG0WDTPkkoOheqWG9xtDY/ufR2L5n8/iqkYHr/jPaAmElrA90r2/YR2qiUe8m5FeW05VQSAL2wsAyChLpQKANARhYbWDgq/cI8Hync/lB0Nd7kkNiqwjIWoChUFhfXHl4xVj2Tk3S1wUcXjGOhxP5L6yCVdzalhNiA0u6Cd/c/wI1JU62DHQnGq1pkdM43Qtt0+I7CICAMQIwsIxxQioXErhp9awJmpLgsVeIzODC5rFNpAKe9Tag7DR9iZdBHCRzMP+dxp6q8sIK2+r0e8EpAyusFPA4dxnormtcHmoJOOp39aEfCNhCAAaWLVhRqBMEQuy94idBtRN1oQ5nCDRz99RQDuzZq6gPz+7rQf3YkCrjAekDy4dTSaSMPVMT2CsFg9rq1hAP4NBep3MXakRiYJ0qXqF+p37gGwiAgBkCMLDM0EJadxFQ1LNTr9ruEix40qhagg2gchrUcwQVhopaH9JxtYmGcbddj6JKkgWSJZ0sz9K3bCj1LOyt/5YH+ggedO6X5We82PoyqL2iuJ++4HNbA4t7X4d/oy7a9ydzY594US/IDAL5JAADK5/0UXfWBG5ZO3OmqurL4mRdBjJ2JtAynilC/dkAEi9SSUE5G0jj2DhqpuKCMu6WG6FHOZdxOuJpEsMJm38InN5nMh1rqtfHYUm3IdtdVU2UGMkawsDyTzNDE4cIwMByCDSqsZaAlgidR4o2wdpSg1GajLGJhAuoT+kgGlReRf3Lh+njmUrYgBJvE8YyBeM8SKdlZekA9iQWUmO8IeUcHqYoYTGwMNA9HTDsA4EuCMDA6gIODrmYQIjGth0q4mJJ8y6axIDqyd6okZUT9Yjdo9hLIWvPhXm8DTYQaEugd/FAvau2ZU1C/UhfNsj7t02D7yAAAsYI4A5rjBNSuYhAzSMzp/JN/0wXieQ6UQo5iObovlNoQv/pHAPqXB7zNNh1MkIg9xGQha2LIsU8Nk4WfW7ZeHyWeLCwgQAImCQAA8skMCTPPwEtRDN5Htmk/EviDglkULIMUpZI3GcOuJDG9D2HxvU7Fx4qdzSPp6SQMXcy9qrdQHfSentKCQgLAi4hAAPLJQ0BMYwTYGPiLE4d+HVOpOtPHoiTB86gGVULqAqBNY2fREiZlsAAHo9XzOEwVDVBxGPcZeOXmcpvPXJhjzvmbTrasgf/gwAIGCEAA8sIJaRxDYGlj02vjDeTRJcO7CYz+KQrR4yq84Z8muNF9QwsCyhuPQEx2mUB6JRnVFNo5Mlw5Byuab31taFEEPAvARhY/m1bX2qWaC44nxULpIElcaTG959Gl435Eo2qnKx3C/qykaFUWgISQ0xm94kBZOcmoTi2H3xVr0smQvCkU/EW21upnQqhbBDIEwEYWHkCj2qzI6ApyjR+tZYFaAOxyWDjIh6wPmnghXT5mOt4iZhhWF8vEC3fXsmG5mNUf3KfvmB1+yPW/5IuwhYP1gm9cO4iHKxoyhn8o8762lAiCPiXAAws/7atPzXTtGk8KsT3468S7K2QiOiTB15AV57xFRrYo8qf7QmtDBFoiB+j3Ud3OGJgDeoxkkrZS3ak8QBFqEDkK9ZCWg9DgiIRCIBAKwEYWK0o8MXtBGrWRYdSQvP12mgSST2uxXkm4Fk0b9zXaCQvIYMNBI6cPEiHG/bnD0SLByt/9aNmEPAgARhYHmy0oIqsxbVJPPCowq9L/cpCxz156Zkrx/4Dzay6OqjNDL07ENh//EPadfgtGs6zRJ3YJCBtD14ncre6rXUmIQ94L3SibtQBAn4iEPKTMtDF5wQUmsTGVYUftTzedJjOHnIJfbv6v2Fc+bGBc9Dp3QObacveGMk6gfna+LrrW7Nuhq+9x/lii3r9SwAeLP+2re80C2k0iaeM+8rAkqnwEnX9hvP+k84ZcikHecQ7j+9O3BwUOnBiL23jGX2yZqRTW6/ivlQYKWkXzd2pulEPCPiJAO7mfmpNn+vCxpVEb/fFOavHGGJjSoKDfuui++i8oZfBuPL5+ZuNeuK9ki7CMwfNzCZ71nlk5qqMB0xtGnuwtEQYi6ungOATBAwQgAfLACQkyT+BpXUXD4lTojT/kuQugcQzkqnw0067nOaPv5EKQhjekjtV/5UgY/Je3v0Ue5ISvJ6kxPnM61ZEioqItnltAlTuNQIwsLzWYgGVt0nTKhSFwl4f4C5R2CXkwhcmf4vG9JEVf7CBQHoCL3z4Z3rv4Fa6eOTn0iewcW+vkn5UXMBL5rBxJ2sT8nVXyL3ZCNVgI3MU7T8CMLD816a+1CgUUmfyDd7Tb9ASLHJk5ST64pRv07BeY33ZTlDKGgKHTx6gTe/XUQ+eVTplcLU1hZoopaKoL5Wwl/Vk/LhuYHHWvrykOLoITTBEUhDwxXgWNKP/CWia0ou1TC4/6z19ZZbguP7n0aKzb4Nx5b3mc1zi9Tsephd3P8Hx0KbS0J6jHa8fFYIACOROAB6s3BmiBEcIaDJH3ZNjsI42HqJzhn6KPjfpm9S3dJAjtFCJdwlIt+CWvRuoX+lgGt1nqncVgeQgEHAC8GAF/ATwivo8BsSTHqxjTfVsXF1K10xcCuPKKydbnuV8ctvv6e39L/H6kxexgTUlL9IUF5Tqky80Xuk5uRXzNYguwhQNfIKAAQIwsAxAQhJXEBAPlqc8ro3xExwccoq+lmD/ssCsT+2Kk8WrQjy9cxXtPPQGL7Yc1idB9C4ZkBdVBpQPp/Ki3hRX423r9/QYyLaK4DsIOEEABpYTlFFH4AgkeD1BeUBdy56rqorxgdMfCpsncKjhY1q//WHay4s6j+13LlX1xnljniJygIB7CMDAck9bQJIMBJasjUo/SUGGw67crXKQxhvO/UFelzdxJRgIlZaAnC+/23oHHWz4iCSUxwXD5ugzTtMmxk4QAAFPEPBUl4sniEJIywnEVX2BZ8+8DMTVZlp01nf5AXmm5SxQoP8INMYb6IltD9GOQ69xWIQTenR/hPHwXztDo+ARgIEVvDaHxjYRkKVFCsJFdMmoz/MA5RkUCXnK6WYTFRTbHYG9x3ZQbMcfSSK3i7EVHfFZdA92Bw3HQcADBGBgeaCRIKL7CYhxFQ5FaBivLTj7jEVY/sb9TeYKCT8+9j796m//xobVCX3tvx7FvWl037NgnLuidSAECORGwDPdLrmpidxeJsBL5MgYLFe/DEi3YK/ivvT3HKUdnisvn23OyX6oYR+te+d++uTEbr3SZrWJLj39izSgfJhzQqAmEAAB2wjAwLINLQq2ioCiUQWX5dpzVR6MvUv685px13KsqyG8bpvXV0y0quVQTlcEtuyNUWz7H6gwXKwn61nch84fegWVFmDJv6644RgIeIWAax9aXgEIOYNNQAIxSvfg0F5jqJrHzmADASMEZCHnh19bzmsN9uYlNnmVPyVEl4++jnoW9TGSHWlAAAQ8QAAGlgcaCSK6l0BTooEG9aiii4bPc6+QkMxVBN7Y9zytfvMXpKoJ3bAKsXO2T+lAOv+0K6goUuIqWSEMCIBA9gRgYGXPDjkDTkDVEhRSwjRxwIV0Ji9rgg0EuiOw9+hOevy939Geo9t1Y0rOoeKCMrpizMLWrsLuysBxEAABbxCAgeWNdoKULiRwovkYjeEZXxcNv8qF0kEkNxJ47N0V9NKeJ6m8sILEuCoKl9D4/tPo3CGfxuQINzYYZAKBHAjAwMoBHrIGl4CMu5K/URxMVNZtwwYC3RH47Zb/oE276qhXcpxVanLE5aO/3F1Wx48fPvkJBz09TqEQHhGOw0eFviGAq8c3TQlFnCRwIn6MxvU/j7sGZzhZLeryKIHfv/IT+tuHf9E9VjKgXcJ69CyqpLMHX+JKA72+YT81sIc2zF3g2EAABLIjAAMrO27IFXACjc0ndO8VFuQN+IlgQP2/vPc/tGXvempWG/VgtJJFAouexjNPZ5/xFQMluCbJEddIAkFAwAMEXB280QP8IGIACchyJsN7j6Oxfc8JoPZQ2SgBWcD5z+/+htZzrKvjTYd5jFWhnrWBu96qek/Qg4oaLcsF6U5qRK+7QA6IAAKeIQADyzNNFVxBVaItHLqz2S0EZEHecf3OoxGVE90iEuRwGQFZV/Bvux+nJ7f9Xh/LJMsoydYy8zREUwZH9XPIZWK3ivPRsV10tPEQFUfKWvfhCwiAgDkCMLDM8ULq/BCo52r5BTr/mwxsV3jtnjF9z0bE7fw3hyslkMHhG3eu1GNdSRgP+UttYrRUj7iaLuMlcdy8SRemjBOTcz25NREp6CJM0cAnCBgggDFYBiAhCQikCDSxZ+IMDs0woPy01C58gkArATHAX/14ExtX97UzrCSBGF7i9Zw+bA7HvPJWQFF+u/mEFPWNVkXxBQRAoFsC8GB1iwgJQOAUgabESd171b8MC/KeooJvLQQ09lz9iR585UedgoaK4dWcaKLqqqtd3TUoekiIBvG0pbo10bogAALZEYAHKztuyOUggXvmxmJcXaODVWasSmaCDa8YSyUcfRsbCLQl8Og7D9D/cKyrwlBRpwW/jzYdosvHXMfL4cxum8VL3xtJC6GL0EstBlnzTgAerLw3AQTwCoGEGqcRFROoX9lQr4gMOR0i8KfXa2ntO/dTaaRcX1+wbbXi9Rzf/3w94n9JQXnbQ678vv3gayQGYVsPFo/E+oTCCcwidGWLQSi3EoCB5daWgVwdCeziHYM77nTytwz6lTE0PThAJDYQEAIyK/DBV+6g2Pb/S2tcaZrGM/FKad7YG2hIz9M9Ae0kB9GVlwmF/2EDARDIngC6CLNnh5wOEuBBtmJg5bWbUB6mg3qMwOxBB9vdzVVJKIb/fum7tHHHSiphI0oitHfcmtSTdO2kW2lUn8kdD7n2996jO+hE81GO4t72/VvZUzv76f2uFRqCgYALCbS9glwoHkQCgRYCiqbsIkUTA6soX0zEgzWy90TdI5EvGVCvOwhI4FAxrt7c90Jy+Zv23h6No4rIMjOXnf4lmjKo2lMLOR9s2EfSrZnOYHQHfUgBAt4gAAPLG+0EKUPaLn5mcSye/G3FPLC9tLBn/gRAzXknIIbTgRN76Vcvfoc+OPwuRcKFnbrSZMag7B/dZwpdyUvhFLF3y0vboYaPeSmfBp7I0Tpe7KSi0Yte0gGygoAbCMDAckMrQIZuCSikbdVIOdFtQpsSyFiaIT1G6d4Km6pAsS4nIDHQXtj9Z1r5+r26AZJuIWQxwFT+k4kQ/3jO9zqFa3C5ivTxsff1eF2h0KngqCwzL5OjHnW77JAPBNxGAAaW21oE8qQlkFDDhxVFjbfviEmb1Jad8uCsLB1ABeyZwBY8ArJ+4IYd/0d1b92nj00KpRlvJVSaZJ3KinFUc/5PPWdcify7j7xHjdw9GOJ/rZtCezii+zutv/EFBEDAEIE2V5Gh9EgEAnkhcO9V619n4yqPb9Ea9S4Z0Lpgb14goNK8ENh//EP69YvfpVVv/KzDwO/24sgalUN7jaarJyz27EzTPUe3sZHIBlab5X343WKPmoi/3V5b/AIBEOiOADxY3RHCcTcReJ+Fyct0LFkIsbJ0IDxYbjobHJDlnU9epj+9cQ/t4NhQXY2lakw0cLfgELqU1xgc2+9cBySzp4p3D2ylBg7T0NbA4hebQ7XzNu2xp0aUCgL+JQADy79t6z/NNHqVRxRHWbEezirH5hWPwaoshgfLWe75re3pnavoD6/dxYseN3VpXMns0sJQMUVHXOPlSO36uLKDPIA/wfpEQm27whUYV/k9FVG7RwnAwPJowwVRbCWkvMqDzQ+z7g4bWEGkHVydJd7Z77b+kONb/UkPyREJFWSEkdDierDRBeNvZO/VFzKmc/sBCSz67oEtvF5iM7/DtBs50qBq6qtulx/ygYAbCcDAcmOrQKa0BLQQPUMJ2scHsVZNWkLYmSuB9w+/rRtX2w+80jZMQdpiJRyDhDOYN+5retdg2kQe2SmG4ntsYIm3jge0t0rNvtudoZCyvXUHvoAACBgm0O5VxXAuJASBPBConR37kKsVDxY2ELCUgERlX/fOr+nev36DPqh/u1vjSiqvP/kJXTNxCc0d+1VLZclHYdLN+crHz7AHq7FdgFEOj/J+qFnZkQ+ZUCcIeJ0APFheb8Ggya9pW/kJEGW1T71mB40B9LWMgITf2Mexnx7c+iPaVf+mvgZfV12CqYplKZmrxt1AFw6/KrXL058SPPXgiY/07s62EdzZm/XG8gWxnZ5WDsKDQJ4IwMDKE3hUmx0BTaG/smX1Gc59WnYlIBcItBCQ7r2/fvAorX7rF7rnRva27R7LxKmZu9EWTLiJLh5xrSFPV6Zy3LK/ofk4vcreKzE2GUBHsd7quAO/QQAEjBGAgWWME1K5hEAkHno+EdE+YHFgYLmkTbwoxo5Dr+vhF979ZAsHBDW2vKVE8xfv1uxxi3jG4Gd5AHyZF1XvJHNj4gSPv9qqz5TtYF69q2oIMNoJGHaAgEECGINlEBSSuYNAS3eFIgYWNhAwTUC8NH9573/ox898TY9tZdS4kpmFRZFimj5sNl0y8u98Y1wJwEO8uPOrH21q8WC16XlnY2sLqc2I4G76LEMGEGghAA8WzgTPEVB42rimKJ/znOAQOK8ExGv18Kt3cjiCl6m0wPii3TIAvEdRBVWP+AzNHvOVvOpgdeUyluy1fc9RONT5UcDd8VvuQYBRq5GjvAAR6HxVBUh5qOpNAryKx9M8Q/41ln6iMxoo+tic9w5u1aN09yjq7Uy1qMUSAhKZ/JE3fsHjrdbpY63MGFcyq66ipB9dNvrLeregJQK5qJADJ/bQMztWdQgsqgsYJwpxvyE2EACBbAmgizBbcsiXNwJ3XblxI3dfvJI3AVCxZwiIUfW99V/WF2qWbr50nppMysggeFkeaT4HEZUxV37c9h7dSR8d28lL43R4FCja8xyiYZcfdYZOIOAUAXiwnCKNeiwloJL2DvuVLC2zq8IkuvU2Dj7Z0HyMu4vgweqKVb6PSZfe25+8SCt5cWZZqJkjkZteQ1IWbh5YPpw+M7GGJg+cmW+VbKn/o2O76K/vr9Oj1aepYOXdc2LiJcYGAiCQJQEYWFmCQ7Y8E9CUF9jm2ckjc6sckYRtOTGuxAuCzb0Edh95Tzes3tz/NwpzX7JsZg3xI40H9fhW10y8hSqK+7lX2Rwl+5gNrM0fxai8oCJNSegeTAMFu0DAFAEYWKZwIbFbCGjxyAtKYfwFlqfKCZnkIb376DZqTDQ4UR3qMElAxhKtfuuX9OLux9nuDrcaVyaLoWON9XTJqM/z8jc3UM+iSrPZPZP+SOMB2rJ3A4dmSBv76zmOSPGhZ5SBoCDgUgIdOt5dKiXEAoEOBO69+skDvCvWYbetPyUG0o6Dr/F6bc221oPCjRM4yV7FP7y2nL775Od04yqsRAwFC+1cgwRw0GjuuOtpwfiv+9q4Et3Fw/fs+2uotDDtbMrfK+ESLI/T+STBHhAwRQAeLFO4kNhNBHhc1AsaqS+xTGc7IZc8vLcfeo3OHDSTKksGOFEl6shAQLpq17793zx4/U90vPkIFYQKM6Q0tjvC+RedfRtN6H9B5wHfxorwTCqZGZkaT5imC/SEqoWevHf2o42eUQiCgoBLCcDAcmnDQKzuCdw9Z/1LNWuq17LjwRkDKxSmvUd3kMQOgoHVfftYnUI8TId5geWnd66kZ3atpqONh/TI6tkaVxKZXWYVDqsYy16rG2k4f3aaTWe1Ei4ob8veGL2850kqSxMLjHsMVxcUxg+6QEyIAAKeJwADy/NNGHAFNHrRKQLi5Xhj3/Mc+fpjGtrzdKeqDXw97KWkDw6/Q4+/9yC98tEzLQsS85g4I4syZ4KXkMjs4RI6a/As+tykb5ieZZipXLfvb+LQE69w1Pb9x3dTr+K+ncQNKVrt8suf3tvpAHaAAAiYJgADyzQyZHAVgbCymZ+4D7Fz4/NOyFUYLqZ3PnmZTq+cwgv9+mMtOie4ZVvHm/ufp3XvrKB3P9nMawYW68WYnRXYse6mxEnqVzaE5pzxVZp22uUdD/v69/od/6cPbi8r7NVRT5ke+6YW0t7teAC/QQAEsiOAQe7ZcUMulxConR37UNHoD06J02JgvUT7jr/vVJWBq6eRY1A998Fa+l7sS3TnpsW069CbrcZVLjA0joclxtXEgRfSjdN+HDjjas/R7ey9elrv4k7j/Wtgw/WuoyXho7kwRl4QAIFTBODBOsUC3zxLQOOAiMrTLP4Mu1UoipTQqx9vou08m3B4xTi7qwtU+R8cfpc27XqExwetp2NNMr6q0LJFlRNanGTM1ewzFumeqyCMtep48qx7+9e8DuNmXoexR8dD7ACmfWpzeOWKWU+e7HQQO0AABLIiAAMrK2zI5CYCWrjsfS3R8CAv7WG7gSV6y9id7Ydepakno74OROlEGx/loJ6bOR6ThAz4iCcQJNSEHmZBjCurNvFaDewxnK6ZuIRnCU63qlhPlfPsrjqSxa5DHHxVUThqbvutnoe0rej3ypOH2u/GLxAAgVwIdLrScikMeUEgXwRuWnvx8JCaWM31T+I/W89r8YY0J5roy1P/lS4aPi9fKnu2XgnmuZlnsr22bxO99tGzPJOvwDZdxJg4/7QrafaYhWkHddtWsYsKlpmXtc8t1ScKiAc2zfZuY3HBufdd+sThNMewCwRAIEsC8GBlCQ7Z3EVAO64eoFLtN6Qpd7BkthpYEg/rROIobeXxLOP6n0d9Sga5C4YLpWmIH2NjahM9/+GfdU+KrPUnS9nYY1xp7KUJU/+yoXT1hJtoTN9zso7s7kKUpkV6cOsd9MmJ3TxTsihd3kN8sdwP4yodGuwDgdwI2Pogyk005AYBcwSWPja9Mt5cKMvnjOA/WydwyDT/uNrE8ZNuostHf9mcoAFJLQ/1V/Y+rXurPuQ1AiXApXRR2bmJd1HiO1WP+KzeLhLnKqhbE/N+avvv6cn3fk9i4GZgv1UNhefde+VTu4LKCXqDgF0Egnv3sYsoys0bgV5Hjhw7WNz3dk2hu1mIdCvYWiabeF8auJvwTY6LNXVQNQ0oH25Z2V4tSAzObQdfpZd2P6kPpj7I8cIk4noqrEKGB7wl6qo8Q1C6AycOuIA+O+FmDsMw1JJyvVqILOf0xr7n6NG3V3AbqJmMq5OaoqyBceXVVobcbicAD5bbWwjymSZQU1e9iTNdYDqjyQwy7V+6umZUzefxWN8xmdsPyTUemP4+vbH/r7R170a9609m6qUZRG2rsg28HuGIyok0f9zXaXz/abbW5ZXCd/KA9p9surHVuE0nNzfVxiJF+cxP5sY+SXcc+0AABHIjAA9WbvyQ24UE+MHxPXZm3Mei2erGUJQQRcKF9NrHz9Jf3vsf+vTpX3IhDWtF2nf8A9pV/xa9te8Fep09JEeSy9WkanHSuJIuxwqORj6fF2eeWbVAD+uQkiPIn7u5O/b+l2/XPVfiac2wnQwp9AiMqwx0sBsELCAAA8sCiCjCXQTuuWrDo+zFkiV0bDWwRGtZB09mab3wwV9oXL/z6bReo90FI0dp9h//UI/7tav+Td2wOtSwj+NJSdDvFud3moCVOdbYfXZZkzChxik68rN0xZhF1LOosvtMAUnxIccS+93W/6SPju3Sw4l0ofZfitX4L7s4jkMgAAI5EoCBlSNAZHcnAZXoDh7lPpalkz9bt0Ke+r732E767ZYf0FfP+R71KRvcZdeMrcLkWPhHR3fq6y3KWKodh16j+pP706z5l7+RBTKm66Lh8+mSUZ8L/Dirjk19uPEAPbH9IXpr/4vUo6h3x8NtfzdwYNFVd8zbhKjtbangOwhYTCB/d0qLFUFxINCRQE1d9MdE2jc67rfjt4zHkpADVb3H01fOvt0TXhXxAknAVOny23XoDXr7k5foeNMR1sNd710yY7O0oJzjWV3BswM/o4fFkO5ZbKcIyISCh1+9k57/YB0bV9159JSf1M6NffNUbnwDARCwg4C77qR2aIgyA0sgrsS/H9FCU7g76xK7IcgDX+UQAeL1ufvZW+gfz/l3jh5eZXe1pso/yuOl3v7kRX2m3/aDr9CHh9/rZEy5ybiSmXBlhT3pnMGX0KyR11L/8mGm9A1K4n3cjfvQK3fQ1j0bDRhX9G4opEpAXmwgAAI2E4AHy2bAKD6/BBbXVS/ik/wnLEWXfSZWSikz6cSLIEbWSJ7dlo+tKX6S3j/8NhtTr9CeI9vovYNb6eCJjznYpHVL0Nillwxe78WD1y8afpUez6qb7i67xPBEubuPbqMHt/xQN5xLOf5XdxuHzPjq3XNjv+ouHY6DAAjkTgAGVu4MUYLLCdSsnnknxw5Y4qSYEvCyvKCC5o2/gbu2ZmeKQ2SJSOLp2Xt0O8ee2sLdfW/Sxxw64SMeEyZda6kYVJZUZHMhjfEGGtXnTH1B5on9bY+yYbM29he/nb2lD279Ib1f/zYvil1qoELlfxMJ9Z9+Nn/jBwYSIwkIgECOBNBFmCNAZHc/ASUU/i2PkZIn9nlOSasvp9N8hB54+Xts9LxNc8d+lcoLe1lS/cc8Q+wDni32PhtTMm5qLw9MlzFgHcclecW4EuPg3KGXsSF6OQ3pebqtxqglDeCCQp7euYrWvXO/PoPVmHFFR0Mh5c7auTCuXNB8ECEgBODBCkhDB13NmrqZvJ6N8kA+ODQmGnhg9kDdyJo+bI5hEWQQuniixFMhXqn9HIPqPe7yE09PyMODvGUmYGG4mE7vM4UuGD6XxlROpdLCcuaC21F3J8chHsy+7p1fc7T89bz00MlORnXm/EpNn4b99y279vWmzGlwBARAwEoCuKNZSRNluZZAzborijT1+PcUTcnL7CkZl6Xyv9N6jeGApF/k5XWi7R6OYkwdOLFHj4YuXX07OBL3gRN7Od5Tc7t0rgXcjWDiYVM5flVVxTgeWzWPJg28gD16jg2L60Y69x8Wo/TVjzfRn16/l8TIMrPxTf5BRY3cete8J81lNFMJ0oIACHQiAAOrExLs8CuBxXXRsQppP2f9ovnSUYJkStddZckAmjyoWn9Yipdq//HdFOe1DTt28+VLTqvqlQWHh1ecQecMuZTO425AGbyOzRwBMajWvP3fHILhMT4/5OwxfNvmcHD0AZ/zl949d+O75mpFahAAgVwJGL5Sc60I+UHADQRueqT60lCI1rEsGH9oQ4OIp6ogXETj+p9HY/qeTZMGXKgbkzZUFYgin32/jla/eZ8+1kq4mtzq2R67urJMeXrZrFjcZF4kBwEQyJEAHjI5AkR2bxEIFZRuVNQTN3GP3S+8Jbk7pU0Nru/L0evH9TuPJgyYTqMrp+hGljsl9oZUEvz1kTd/Tm/u/xtFlEg2PA+xo+vHd8/ZsN4bGkNKEPAfAXiw/Nem0KgbAksfm16ZaC76LnfXLeakGVfD7aaYwB6W8UClHAB0KK+7OK7veXTW4FnUp3RQYHlYqbiMw/vj63fzAuLP6TNDQ5kXa+6qWu4aVB7iaO1/31UiHAMBELCXAAwse/midJcSqFk3rSclih9n8c7iP3hyu2gnGTcmYScG9RhBw3qdQWcNmUWjKs/kNQrdH7S0C7Vcc0hfsohnh8Z2/FFfR7CRZwfmOEv0iXBcuWb5gli9a5SEICAQQAIwsALY6FCZCfBY86VrLh7cTInH+SIYlwsT8egUhUtoWMVYHtA9jop48WfZIrw2oSyW/OpHm0iWMyk0P4YmF7FyyivR1MUrdebAGTSyzyQ6g8dT9cCsv5yYdszcxIbUlr0xWr/9D7T7yHt82JLb8ctEoa/Uzl2/tWN9+A0CIOAsAUuuaGdFRm0gYB2BW9bOmqaq6kNc4gizpTarTWx0VOiLEMtaeb15ZmCmbfvBV+nRd1bQG/ufpxD/c9tsQQkjITPURlZOorH9zqHx/c/XvVWZ9MH+7AkcbPiIntz2vxzL6gk62nhQXyQ8+9La5dzD3sZb75m78X/b7cUPEACBvBCAgZUX7KjUTQQWr6m+RtHoxyyT4dWEjzXVs3fnIrp20q00uMdIQ+qIp+uvH6yjR974BR1rrte73QxltCGRdPvJ+B4JFyHeqaqK8XTmoBlUWtDDhtpQ5LGmQ+zJfJae3rWKI/u/JSa21UY2W8jaP9XO2SjrbmIDARBwAQEYWC5oBIiQfwKL62bewo+821mSbtezEeNK4jpdM/EW6lc21LTwsrzN8mcXU0HI9LR703W1zSBjfUoLe3A35nie8XeOHoerb+ngtknw3SICshbl3iPbecHtd2gTh1r4kJc2Upm/XZ5LOXd5EedlFomPYkAABCwgAAPLAogowh8E2Mi6jR9Ut7E2Ga8LGTczoHwYfXnqv/JA78lZKS6LM7+8+0lasfnf9XFaWRViMJPU1bOokiZyPKppp11GI3pPwOB0g+zMJjt88gC98tEztO3gVnrnwMt0rPEQF5HxVDJbfOb0mracImX/XDv70cbMiXAEBEDAaQIOXP1Oq4T6QCB7AjV11dLFcmumEg417KMbzvsPfbmXTGmM7D/SeIB++bfv8KLNb1OCuw7ZsDOSzVAaKUs8a5O5y0+ixQ/pOSqv3ZGGhPZYomaOuv/Jid20k5c02sYzAN/e/xL/3pNNvKqcNOehc/cpEfU7tbOf3p9TQcgMAiBgOQHr7uqWi4YCQSA/BBbXVf+AL4z/17F2MYRKImX09Wk/Yu/VpI6HTf2WAfJb926kh175Uc6LN4tcxTyLcVSfydx1+Ska3XcqVRT10wetmxIKiTsRkNmUBxr20r5jH7Ax9QaJYfzRsfdpz5FtvNhyo21dfp0ESbtDWxuOhxZzOIadaQ9jJwiAQF4JIP5PXvGjcjcSUEPK3ZGEdpqmULtAjbJW4PjBF/Nswf45i13AMaRG95mSjHekmS5PxvgUhou5jKk0o2oez/w7j8d0IS6VWZBiJIkXKhQK00dHd1FD/Bh9zMaUdO/tPbqDv7+f0Stl13gqAzrwqUlrVTVxw/IFG/cYSI8kIAACeSAAAysP0FGluwn87MrYR9+oiy5tIjrMAbNuSkmrkkoVbFyl4lyl9mf7WVJQzll5KV7DBXDAT46tNaL3RF44+VKexThTn/UnXpVtB7bqkb93H92ue1ZkhqAYDifjJ3QjToyBhJrQu7EkWrjE6DKyycxHkXNExQTuyoxnzCID6HsU9eZYYOMozt65dJuUVcwewH7lQ6lHQS+9azRdumz3ic4n48dpT5JBavyT6Lqf45BJeATZ1xhv0OOSHefJCt1FSs9i/b9sxTear5kTPhOKK1+6e8EmBBI1Sg3pQCAPBNBFmAfoqNIbBJasjFYkIuo3+KH8HZH4RPNR+vvJ/0wXVc03bKB0pakMmP/Xx6/Wyw0bWBJFApXK7EUZuH6i+QiP33qHDaa98Fx1Bdlfx8TCfaqxuODa+y59go1/bCAAAm4mAA+Wm1sHsuWVgCw18vU1F/20gMJlPJi4hr0dkT3cbSTGTc+iPo7L1sTdWc++v6ZdvegWbIfDzz8S/Db88N1zN3zRz0pCNxDwE4GQn5SBLiBgNYGfz3nmUPhE079yR96veH24E4caPta7mHKvR9O7rDRNtXD+YO5SoQRXEuDFm7Wfw7hyZdtAKBDISAAGVkY0OAACLQTuvPa5hrvnbvw6R9++hZe6+Vim4+e6yTggiZkk45KsDNGQq1zI7zoCMqD9+7VzN9a4TjIIBAIg0CWBcJdHcRAEQKCVwIu///BlbeYHG8f1P+sCjoDev6ywZ+sxs1+O8iy1B1+5g71hJ3iIF4ZCmuUXkPRiXH2TPVc/CIi+UBMEfEUAHixfNSeUsZvAi1+nF3635f/73Immw8/LAsnZbEd4gV9Z+Pnwyf08gzC7MrKpF3k8ReADXlzwajaufuopqSEsCIBAKwF4sFpR4AsIGCPw5v8d20+ztq2dNuTyoSUFZRON5WpJdbzpMP3lvd/SE+89qMexMpMXaQNDYHM4pPzd3XNiscBoDEVBwIcE0Dfhw0aFSs4RON549PvhUPhfjMTGkqCVf3ztLtq8N6bHr3JOStTkHQLK7yIU+vadc5/a7R2ZISkIgEA6AjCw0lHBPhAwQaD2Te2+dAAAPatJREFU2aVfGD/g/P+aPHBGjz6lgzrl3M3Lqjyx7UF6iRd4lmCdYQXRUTpBwg4Jw/CteINy38+ujR0DDhAAAe8TgIHl/TaEBi4gULM6er6mqL/hgKGjJdJ6QbhQX7NOxlmpeigGXGouaCa3ivCuoihXV74Ye2PZMl4uABsIgIAvCOCu74tmhBJuILD0semV8ebCH7Is1/GfsbVo3CA4ZMgXgThPcfhjqRq//o55m47mSwjUCwIgYA8BGFj2cEWpASVwzcPXhAeWfHwJx16oZQRjAooBandP4GNStH+pnbPx190nRQoQAAEvEoCB5cVWg8yuJ3B93dmlRVT+Xyzo5/kPg65c32JOCqitVUPqrfde+cw7TtaKukAABJwlAAPLWd6oLWAEbq6rXsDRIn/K4a6qAqY61O1MoImXXLqVVwW4t/Mh7AEBEPAbARhYfmtR6OM6Atc//qleRSebvsfdhotdJxwEcorA6oiSWHrnnGe2O1Uh6gEBEMgvARhY+eWP2gNEYPEjsy5UQuodrPIFAVI7yKpKmP5t/Hdrn3Ll0WWzYvEgw4DuIBA0AjCwgtbi0DevBJY+PL0kUVLwFV4G5T9ZkPK8CoPK7SRwhFfx/uHRMuWnK2bFTtpZEcoGARBwJwEYWO5sF0jlcwK31F00TKPwTeziuIVVLfK5ukFSj1fvpgcofPKfa2c/fyRIikNXEACB9gRgYLXngV8g4BwBdmPdsvqS/moo/iOu9LP8V+Jc5ajJYgLSHVjHawjetvzK2BaLy0ZxIAACHiQAA8uDjQaR/Udgad3FQxKUuJOf0tf4Tzvfa/QUdwcuq52z4WnfawoFQQAEDBOAgWUYFRKCgP0EatZdPIrU+E9IU+bZXxtqyJHAX5WQcvvdV8Yey7EcZAcBEPAhARhYPmxUqOR9AovXRs9RVO3fWJOrvK+NrzSQmYCrtJDyw75/i72MtQN91bZQBgQsJQADy1KcKAwErCVw09qLxoS18C2aRnO55CH8F7K2BpRmkMAh7r79L/Yu3nPPVZv2cpegjLnCBgIgAAIZCcDAyogGB0DAPQTYUxL65KxZCxRF/TZLdRb/hd0jna8l2crdtcsblaMP3zf3JZkhiA0EQAAEDBGAgWUIExKBgHsILFkZrVIjGsfSoutZqgHukcw3kjRx1P2VWoh+fM+VsRd9oxUUAQEQcJQADCxHcaMyELCOgHi1Dp41a66mqLIEz3T+K7Ou9CCWpK0lRVlbqCl/+Mnc2CdBJACdQQAErCMAA8s6ligJBPJGYOlj0yvjTQXX8AitKzAD0XAzSIT15zgc2cNKOPF/tbOf3m84JxKCAAiAQDcEYGB1AwiHQcBrBMTYao4XXqJo9GmW/TP819trOtgo71EeoP6oomkPFKuJp++Yt+mojXWhaBAAgQATgIEV4MaH6sEgsLguOpYvdI4Ur13GGk/lv6B1Jb7AOm8IhbQ1vY8f+Ouya1/nMVbYQAAEQMBeAjCw7OWL0kHAVQRufDharhRp08MhmsGenPM5/MO5LGAv/vPLvYA9VNpTiqY8rynK3yhU8nTt7EcbXdUIEAYEQCAQBPxyUw1EY0FJELCDwJLHZgyKN4encbfZmTzIezx7uqq5noF21GVxmR+wrNsVCm3RNO15ioRfqJ391DaL60BxIAACIJAVARhYWWFDJhDwN4Fv/vnTZY0NDcMpHGaDi87nPza4NAl0Kn9V/FfAf05sPPBce4ENvyMc2f51VVH2cIjPj9STytM/uzZ2zAkBUAcIgAAIZEMABlY21JAHBAJOYNn6aOTAMWUCBz6tJE0r0ZTQGI7L1TekUVwlVY9yHiKllL9M4m7IMkUhlZFF2Fg6zAbSu3zj+YSUUKuRppF2nNO9xt6oExRSVf57C7P6An6SQX0QAAEQAAEQAAEQAAEQAAEQAAEQAAEQAAEQAAEQAAEQAAEQAAEQAAEQAAEQAAEQAAEQAAEQAAEQAAEQAAEQAAEQAAEQAAEQAAEQAAEQAAEQAAEQAAEQAAEQAAEQAAEQAAEQAAEQAAEQAAEQAAEQAAEQAAEQAAEQAAEQAAEQAAEQAAEQAAEQAAEQAAEQAAEQAAEQAAEQAAEQAAEQAAEQAAEQAAEQAAEQAAEQAAEQAAEQAAEQAAEQAAEQAAEQAAEQAAEQAAEQAAEQAAEQAAEQAAEQAAEQAAEQAAEQAAEQAAEQAAEQAAEQAAEQAAEQAAEQAAEQAAEQAAEQAAEQAAEQAAEQAAEQAAEQAAEQAAEQAAEQAAEQAAEQAAEQAAEQAAEQAAEQAAEQAAEQAAEQAAEQAAEQAAEQAAEQAAEQAAEQAAEQAAEQAAEQAAEQAAEQAAEQAAEQAAEQAAEQAAEQAAEQAAEQAAEQAAEQAAEQAAEQAAEQAAEQAAEQAAEQAAEQAAEQAAEQAAEQAAEQAAEQAAEQAAEQAAEQAAEQAAEQAAEQAAEQAAEQAAEQAAEQAAEQAAEQAAEQAAEQAAEQAAEQAAEQAAEQAAEQAAEQAAEQAAEQAAEQAAEQAAEQAAEQAAEQAAEQAAEQAAEQAAEQAAEQAAEQAAEQAAEQAAEQAAEQAAEQAAEQAAEQAAEQAAEQAAEQAAEQAAEQAAEQAAEQAAEQAAEQAAEQAAEQAAEQAAEQAAEQAAEQCDgBJeD6Q30QAAEQ0AksWRmtUiO0UCOtWiOq4JvjFFJoJ2nyp23RlNCGe+bGVgEXCIAACBghAAPLCCWkAQEQ8C2BJWujUxKqdicrGO1WSTG4VOX22qtiK7pNiwQgAAKBJgADK9DND+VBINgEbq6LLmOP1W1ZUIiF48qC5Qti9VnkRRYQAIEAEICBFYBGhoogAAKdCdSsqb6fu/8Wdj5ibA93I26JxJVZMLKM8UIqEAgagVDQFIa+IAACICCeq1yMKyEoY7TiEW09aIIACIBAOgLhdDuxDwRAAAT8SmBxXTRKpN1vhX5sZA08/wsjlOcf2hmzojyUAQIg4B8C8GD5py2hCQiAgAECSnZjrjKWLGO4ZAZixgQ4AAIgEEgCMLAC2exQGgSCSUBmDLLmUau1l/AOVpeJ8kAABLxNAAaWt9sP0oMACJggkEio15lIbjippmi2lGtYACQEARBwHQEYWK5rEggEAiBgGwFFEQ+W9ZtGVdxNWGF9wSgRBEDAqwRgYHm15SA3CIBANgSi2WQykice4cjv2EAABEAgSQAGFk4FEAABEAABEAABELCYAAwsi4GiOBAAARAAARAAARCAgYVzAARAIDAENI6+bpeykRDV21U2ygUBEPAeARhY3mszSAwCIJAlAUWxzcCqX35lzDbjLUt1kQ0EQCCPBGBg5RE+qgYBEHCYgKpssKnGmE3lolgQAAGPEoCB5dGGg9ggAALmCYQTtIpzWd6Vp5Fyl3lpkAMEQMDPBGBg+bl1oRsIgEA7AssXxOoV642h2D1zY7F2FeEHCIBA4AnAwAr8KQAAIBAsAnfPjS2zcLB7fTikLA0WQWgLAiBghAAMLCOUkAYEQMBXBCJxZQErlHtXoaYsxeB2X50aUAYELCMAA8sylCgIBEDAKwS4q3Ane55m5eDJqidNWVR7VWyFV3SGnCAAAs4SgIHlLG/UBgIg4BIC4nliT9Ys0rTlJkWKiXEG48okNSQHgYARUAKmL9QFARAAgU4EeKHmqkSBdhsfiBIv3NwpQcuOVTJbEAPaM9DBbhAAgXYEYGC1w4EfIAACQScgxhYv3FyV4iAR2jHOKkUDnyAAAiAAAiAAAiAAAiAAAiAAAiAAAiAAAiAAAiAAAiAAAiAAAiAAAiAAAiAAAiAAAiAAAiAAAiAAAiAAAiAAAiAAAiAAAiAAAiAAAiAAAiAAAiAAAiAAAiAAAiAAAiAAAiAAAiAAAiAAAiAAAiAAAiAAAiAAAiAAAiAAAiAAAiAAAiAAAiAAAiAAAiAAAiAAAiAAAiAAAiAAAiAAAiAAAiAAAiAAAiAAAiAAAiAAAiAAAiAAAiAAAiAAAiAAAiAAAiAAAiAAAs4TUJyvEjWCQP4ILFkZrYpHqEokUDSqUpSW7/JbU6he02iLfJftnrmxmP4F/4EACIBAHggsrotGpdoQkf4p3zNtfO/ayfewnZE47Vy+ILYzU7p87F+yNjolrlKF1B0JUf3yK2Ot99l8yONUnTCwciQtFwA/pKfww7pCI606WdwU/tRPpi6Kj+nH+IJQNGVX6uLw0kNdjJVEAc0nTZvHurTXmfXifTFNUx5hnVbpujr8n7SN3Ji4XSYTtxGxQZWFCPWcZwvruIVvc1vDCYq57eaVhU56lpZzV7uOz70pfCOQ9kttLToryiPhZlrlhL5t2qpa42ungzwil+0ysQzzFUWb15EHy7OFr/EtpCobaq+KrUhBsutTris1Qgv1+4m8ACTPW10O4uuKryk+D6VdhIljW/LlZApfU1P0a4rbKUNbtZUppv9I3udUvie40QBoK3C+vre5BnK5X6XE168XhZQNwjwfz5Wa1dGF/BYrz4b5KaE6fMb4XH4gH+dyBzls+8n3MWxmCOgPJU2dpylKNM1DwExRmdMmjRP2sWwNK/xAd5m1zzfaikRYvY0UZUlmJdocYX3Y0Fpqt6HVIhdfzC0XdZQlqGgjhXVfpX1UbZWmhDbYrZN1Qp8qST+HFe3+1IP71JEM3xRaEW5Wllr9QDdwA84gEO+2UKakYXWnQR71fN7fXjsntjyzcNkdEQMmEeF2MeCt4DT1bPSvCCdCt1vdLinpbb2eUvc4Nlr9/IBNsUz3aSvfzhXyeUurnHjhNXk9ybXsyPOhMxL798DAMsA4+UC6jm/AYonb89DuWo56PizWvry55tWDIq7ehKatNPgwaq8VPxRr52xY1H5n7r+SMt2Sp/ZJPejucsLTkyutmtUz7zRsGLevrD4cUmblauyLEZH0ztzCxed6LeUsU82aajE0F7ZXtftf4k2KxJmHRV6kpLF5p2km/HAKK8qCXNulrcY5Gb5tCzL3fZVGygNefGExpyaRG54n7Nm6KxSnFVbfs3K4v+gvTXY8H8y2j5XpYWB1QVO/0YS027IyJrooN9dDeleBwq5Vh7pvUvLqhoyqreff2T8YLTSy9BsVcfsYe+NPqWHnZ4wfEne59SGRrTHRBljWBo3+tl6giZdoYZvyrPiatUyL66o35+KFtsrISho09+cAI2sGqTqlfdjwXaKRZoXhmyrW/KfuHWYPoQNdseaFyy2HtLOmaLfkcs7lJkGa3C2eYPGC7kxz1NQuC+4vvjOyYGClOYXcalilEVV2rRLPlt03pOQDcrMlxqamLa+9auPSDPp0u1u8ICa6Urotz/IELnR516yJLuEuJfGQ5LrVh+PKVDM35JvrosvsfHCLoXPP3A1TzSiW05t2m4qyqbtN9hZvBukvLW13Z/M9ayMreW7cxpVm/+KUjcRd5fGRoeWB50l90qO1PFuPrIX3F+Ln2SK7n2ddnXpWHoOB1YZm0nUrXQZVbXZ75autXVVWPZBSMNnTM4s9PbHUb6OfyYe1PAy8sMVYz9uz0dNK5ZIG6WYu06oHaKx27oZZ3cnYMnNIu59vMlO6S5vrcX5A3H733NgyI+UkPZ/rjaQ1ksZM3W3Ls/SlpaVgQ+2SksHJ9knVmcVnjA36RWYM+izqsCWLCz3sXevZ8mK4yOz9yob7i7zEjcjW2OtaSWeP8oQQbHKjEwNCkTdJbxpX0ogVMraGPTs7xFUrJ71VLauXZXRAu8FKmbUpI0keBtKlw54QU/kMimNXMp4Ioa2Xc0vOMbsq6a7cRIHOzMr6o/Lw6KpeeaNNqFpOXXBdld/xGHe9XNdxX6bfZs+9TOWk9ot3Lpv2lS45i+83Ud1bkhKsi095UXGyfboQpbtDUb6nbTaqV3eFOXFczoXW54l7hi90rzo/+1L3q+4Tn0rBE56s7lbWu6tP1eDdb4E3sPRxRQXa5iwH/rqz5Xmci25o1VWvF/1yFVIGJedaRpr8UaOyyc2VHwbrnfCEpJEz911i+PI51p1RkntFnUvQH/wtkzM6H8xhD9+I5abaadMfLvrAcUu6IzuVn3EHPxyM8E2ec9GM5WR3oILDlSw0m9WMUWi47G4MTb19+L7gsRcVfnnU7tfH+BgGkZ+Ecg7Kte7p5wnfr+Rlls+VKkMUFWWhoXQmEtlybZio36qkgTawUg9ui98irWobK8qJyltq0qOVtQdDJT2WiRXytCtDVTPGR2lN19I1qU9dz1r+1sLy+SXLt8NcReagqlEuww528zvKJg/veET3Ai/seMyJ33wzi3ZXj5Fzrrsy0h3XNOMeNMmvG3p8TqQrK8d9UWmHdGVInXr7GOCULn/e9/GLY428NGbQL9/yiVdQPEB+eJ7Iy6x4Drt7CU6+1KQ933JqD742uqs7p/IdyhxYA0t3OUssIHsePg41n8FqxKPFb1XZnrB2eY74Lbo6kwZyE9XfWC3umsxUn2P7WR8nHxJ8gU+xS7e2HqOUcWXXuWJEBz6fJneXrqtzrru8XR03q3dC694Y7Kq+ro6xUd2pzeXa97QX+JTCUTES3WRk6fequuqVfG55afjCKaKZv1XIOcPX+fxMSfj+Es10LNf9HPm9Ktcy8p2f+QRva2NcBUd5fiOQi8WskcU3jyqnIaUe1vwmuNDpuh2qT+9GMNsW2cjGrvbh2eQzm4ffdleaNTLM1mEgvfVv0gYqTSUx056y8kMqn9WfHR96KeOK67GtTqt16Ko8Oc+SnriukjlyrPVelTlauSNy2FgJr6qgrdSfmTZWkq5oPo+npNvvpX2BM7B0a7zFc+WldrJK1oq4qnvtDJeXWrfPcAZzCaMdk6duWC54WHcUzdrfWRq8poWwpxtKFyP1IJeuEd4R1XcG+L/UWmtuQuA34yrFVu4P+R6TpbPlSUW+v1cJdBkDJ0vfYDNFIFAGllwQbI1Lt2BgN/3G5OILxSWeEKfOD90FL+elUxVaXY/I7sOuEasx5aU8/WWl5YXKF56rThBlTJbEd8vDphtXuQZdzoPcOVXJRlbbYQE5lRWQzIExsHx/szFzwkp0ehduyTfSqAtFs1MkTxtZ3O18p51wTJWtL8htKoevEwfiZYWD5zr9ghJI4yp5pUh3odO8vXyRBsbAksWJA+HKNXI2crcRG5xVRpI6lUbvZvLvmKvuMHrSyEoOKo92p5xzx0NbnavL3TXps28D0m1rdthDLi0nL+r6Wqw+Gc+WBYuWe5VLZ3JmoY+tWQJhYOkWt99mo+V4Wtg8tsqUdDIuDt1MpN+45QZuCl5+E8/Pb/Xta5eF0NvvCeYvvpaqPR2HyWSz6cMeHOgq1HtBWsKQVJkU0W/JW8Kx+E0rG/QJhIHlqm4MGxoxmyIVxR0zNMT4Dfq4uNb2Y8+iW2ZHtcrklS+8aK0Xl1OxCW/UpnLdW6ym3Wb3ywmHuuHVPtxx38x3Q+hGLa9QkW853F6/7w2s5KC8qNsbwnH5VKp3vM40FSbd+17y2qTRwrpduHFlxzLcrNyeXU7k8gkBW5dX0WfQBXcIQ/pThHuF7ApCnb5C7+31vYHF3pG0S3rY1FRitKySxV/ZRb9UFjRu+yerhLccoxWcLsZ/eds0Wa3eBRveCNM0At+49HAiaQ5hVxoCfF3Be5WGS8B2cddoVmtCdoepZYiJiyZzdCewg8dx/+4adqTrw94+yi7jqgRpdo8TqSdNWxEOhx5YfmVsi1licvEmEux2DvG4iZY14xzx5kTiZFpWs7q5Ib1GtIVvAvUiCxu3G+RTD77J3XHynbeo/r/L/pNuUz5/Y35YUd5WtJq2vPaqDStsrQOFe4VAyou1zEqBxcvO9xBH7ssm5Y7xTW2noim70uVrc5+bwsfdKH86sX21z9cGFi/AOp+NFvs2vrmHE6Hbly/YoD/As6koaZRt4bwr+G9Ri8GlXkchRWSv4n12bKt8/OBexd7DDWGFYkYNXjHEZXkRRdHXXIzayN1MW1bwNHuJ2bbATKYApeUXG2UpjKsAtbgBVZOLBC8zkNRQEpndzJ4xMVDyvsnLYoiUR0IhWmX03pYSWn+uyPJMmr482fzUfnzaS8DXBpYswMpvHnZs9dz1t+CeqzbErC68jcG1tOWi4C5Oiz1bLPtdVsudz/J0L5Wm3MWzyLIyHJPdSztZh1Wih4zbY2PrOua+UH7ncZsvstwzNxbLowxuq7qePZF3heK03McvCflmHhNvr8oP9EiIdqZ7mMuAcv2lRH8JVCdrihLle23+DRGWR7rX+ZrRr+VcQCZ7QJwcYpJO3JYekkToruR9Kl2abve1ea4sl7Zj58NC9uXLs6Wq28xIkDUB3xpY+klk05tHOKTMSnfTyboVMmRM1rGIdVmaCLM3TgKE5npBsNfNDsMwgwp2746xsXi71QZIsryYcFcjtITfYOUmW2G3MunKZ0NPvFgj0h0LxL6WsYIx6QbhB37M6rYOBENjSsbYI/iA0ZeUpHEba1s0Xy9VfL0s1L1Iud6n2hZs8nvSE52zgcUeZJkll5frnutt8yKRfQ9JOnTJtlvOx5brg/eteK6kqwj7yLcGFr9dyRuV9RsPXnfCuGorePKCWMH7VujelZZV26Nt0xj6zlPZa+duXGoorZsT8UNX44HNdj9sk9yX8YNjRfJmO99xLPygkuVAaufE5IYYiE33SCr8sG/WPZI7A6F0/pS07CWFrxdpq2Xypy9hw6ET+LvzBkqLx38R1531JvdZ9vA4f723SLwqHOfnTAvPrHUwkrH2qtgKTrci2RUq7YXNQgK+nUXIik2xkFNLUfxgz/eDToyK2rkb9NmJLFTMqI4ye7F2zoacbjpG67I1nQxqnrNhhN3GVVsd5EbHzBdItzDvr297zJHvDsT4cUSPriuRrpDl/GDhtt0wVa4zJx4wXYvk66P6MAe5l9hxLUn7SVsywVV5oFjRYiBlXzNPMsmHsZFqkwVOn/t3z40t456ZqfJykz015OxIwLcGFnfrTO6obM6/VS0fN4u0YqcMLbkoiD1TnKjzg1+6V5IPLbmA0hbknZ1y85lVe1X+PHDMXN4s83ETSs2O8k5rGZdUukJul4extK3TDxbjYvonpTxE5TyW89lOrbgt6+XFRELW2FlPurL5wRZNt9/IvqRxlnV+I3V0TKO3CQ89sbtNOtbb9rf0zMjLTfJ50vYQvmdJwLddhMyjIksmGbNpSuiRjAfzdCA1Tourl7FaMhuuSkQRA0w+/bDJzScS4lhHWYTBsFp/MQCY8yyJ6szj4RZaXX6m8qyeHZWpHkf384sBBwgVo6rzy4GjggSoMmYecZi5eLN4rE89tYwndAQ2v2BXZ1uRw7ET+TbC97c4j+t1yXUgPR3cXhucbK9s28rt+fxsYE1xO3yr5ZOHP5cpf77Z3HbzEbDJG+GimjV8D3fKyJKxWKujC5NjJrzevnpXyD1z/PMS4JEGWZWvYQJy3vK4rAr2qMvAcSe2aDaVyEuqA7ETW0Vz4/1NhNPba3WUgwfqk2xa5cUXcwR820XIGCz3YJlDi9S5EnDrzSell/6waumeTe2y9ZO9WDKb0etbTLoD/eRh9UKDyLXE3PM6BjM5fnWVU7wkzI3ZuhJh1bFrzPX3NxkAz5OJzDJE+lME/GxgndIS37xIoN5NbvNMAKWLS26UmY5buV/hiRvZPDSslCGnstgYlUHVbukKyUkXb2WWa0kGTtfnW+ykkeeIHHG1ZbiEKZ0VZaGp9Nkn9sT9TTxZMkYyezWDnRMGlon2VzR1nonkSJoDAT3WmAseCN2pIA8teXhxOkceGokER/n34sZvwvnqnvIiLktlVhRebUIfPmBpsdkUpht5HIE/m7xm8/DDbYqZPDy4fT6nrzCTJ9u0Xrm/iX7JCVKrstU1yPlgYJlpfX674T56Ry5AM2L5Lm0eYo3lwlAeXjzD0RlXuiyh5LVNjKuWeDtek9zz8op3Ndk15xpd9HOhJYCsrTJpmtrLTAXJAKVmsmSVVjxCbpiwY0Z43fPoQJuZkckLaWFgmWslXmLAsUGa5iTzT+qY2x4IRtAmp1fb/5bHg9091U0occtgXBk5hWxK44y3yLTwqgPdTooyxZRcLQFKTWUxm1gMXi+GzBHPowR3Nqtv0NPDwDJ7BvCsMZ49dr/ZbEhvjEC+B+IakzJ9KqfGl3iom3BVPuOWpW+l4OyVh7lbJxPIkjzcEvVuaQ3nugddavAaaIjkuWT/S6QBWbySxM8GVsy2RkgaWegutJaw7jp3yViRbDSTtzzW4a5s8prJIwvrmkmfl7TcneBlYzkvzCyulNdvtP1czFZkfSyWYnOUd8X4IHceX1udrS4m8q1yq8FrVAe+ph0ZP2dUHren87OBZe/bERtZ3F24OdclGdx+gjgoX30oTssdrM+WqpI62HruKTKb0OVjAcOKO2at2dLIHik06SVyrbTc5fSIrcKZWHDaiZcWPxgnMt4UswqNn7W+NbD4JNhqHEOWKfkC5qi/62vqqldKgLosS0E2JiCeH/2t1uM0nPJiyWLmbkUlN2CvDeJ1K8sc5Frl9uspEje+lmoOHLrNKi8r8tLSbcLcEsTEOMmtCHfk5pfIFe6QxP1S+NbAUk0shGxBM81PRLQdYmjBo5UdTT94r1KaO6GLQ10aKZWMf3LXoBcH8RpX0CMpFWWD2yUVA1DGieVbTn5Zsdu44gUf3Ntda5a/big6GGDZrHxuSu9bAytPfd3zdY/WmuodvCzEErd347jmROSL1e1v22ZYJXVZZSaP6bRmZ0iZriC7DNztgzEa2aGzNFdYcYd3qDulFCX/BhY/BKPdyZnj8Xp+Htl7P8hRQLPZ+Tp/wGyeIKb3rYGVbMz8nNTS989rbrFX65B4tWQNORhbmS8v28diZK7atiP8xmr3DShqm/DZFxzz24MkexT5zemVLloeiL8rv6RkOVFtsq0yaNoKW8vPQ+G6AwNxsbol72sDy4GHXLeAOcF8WTBT70Lk8A4wtjoh893bnWjohKHhtnF/fL3d3ql1scNxAm7odjOqNA/l2GI0rV3pmFeVXWVLuZoS2mBn+XkrW9Xy48DIm8LmK/a1gaU/5NxjZfNK8rQwaWzBs5U6V+2eqp2qJz+ftt6AeOxIVX7USlMrX2f6W22aQ9jlLAHFRfGlDGhebyCNrUmY1xQ7K3DiZctO+TOVzYajvbNAM1Xsof2+NrD0dnAiYnB2DZ7ybLU1tqqyK8rDuVT3D8bNlq7dM1l5/IqtDwZTerv3OjOlhi8Sa9oWX+jhgBIOeIFjDqiRlyrwQtU9dt8bWE6te9U96i5TpIytHYvrqjcnB8hXdZnDJwc5Vk/MJ6p0UsPumayK5szCtJ0US7PD7TGX0ojs212KEjrsFeXy/ZC22wvML1n+7B48dYLFTn3Ft44EfG9gicI8iHpRR8Xd+lt3V7cMkNfDPvh9zJY+5detjZGjXHY/PGwfnGtcf9fHXDKuClIGjECFnfq6YYyZnfrxwxXe0i4AB8LA0h90vOhsFxzceqjVsyXrH3pqkV9jRGPGknk4lb1jAG19OBimbndEbsOCICEImCPAD8Ap5nKYTl1vOoeXMoRCu7wkrtOyBsLAEqiy6KyXZtd0OBH0AfIJVZbm4S5EDvvQ4bg3f9prfLiDiUY73SGIfVKge9A+tijZ2wTs9mLnm46m5X8WaL4ZdFV/YAwsgRCJK7M8bGTp7ah3IXLYB/Zo7fC6oeWGGDhdXRwWHbPtDZbP5bx7sOR68lOQWIvaHMWAAAiAAAXKwJIHgR+MLP28lWCmPjG0/Hwd2jmTUDe28wxP0bRYnkVA9SDgTgIB8ND73UOX64kVKANLYPnKyBKFkoaWdB16bR1E3w8Alfbx+ebbIIo+bzeo10JAU7ThtrEIwPAA29j5pODAGVjSbikji3y0YKV4M/R1EFfPvNNDy/LY1n3mk+vT9WpE4hiD4fpGgoCZCcgLKjYQsIlAIA0sYSlGVu2cDYt4HYNF/NM/D3pFWZIo0Db7cMahTZcAis2FAF9HO3PJj7wgAAIg4FcCgTWwUg0qgUjDcWUq/46l9nn+k9/KZMah1wfBe74d/K9AzP8qQkMQAAEQyI5A4A0swSZv4bVzN/AMQ2UBdxvuzA6lC3O1DIK/34WS6SJxJPIqt8oGuUAABPxPIACR1v3fiC7WEAZWm8bhGRGruNtwhN5t6BdDixeYliClbdR0zVdeS6/KNcJAENME8HAyjQwZgkUg6nd1HVjL0dMIYWClaT7pNmw1tPzQdehiIysNfl/tsnM5G4lB5StYUAYEQMBTBOxey9FTMNIICwMrDZTULt3Q4q7DcIjHaLXMOPTuYHgxslwWAd5O4yPVhi74rLBLBsVPkzPsgoRyQSCPBDw0oztbSrbd37IVyE35YGAZaI3lV8a2yIxDHgzf0n1ItMpANvcl4TFZLptd6P+LE92g7rsOIBEIJAloir0zyNnDM8XPsNmA8LV+ubZdJNcCgpRfQjuwvivkT95MEmGSxZjn8e/5/OeJLaFpK1nQES4RNuoSOewTw86B/H4ZJ2gffZQMAl0SkLX02BNs28bjTMUAidlWQZ4LDkgvRNaU4cHKEp0eR0vGas3dsID/eEKcPgNxhetnIfID/+a66LIs1bY8m8s8apbqZ3dk/YCs5Whpm6AwEHCWgDbZ2focrq3FgHS4Uu9UBwPLorZKzkBcJIPjW8ZsKUvdOgiZ3zpuccvYgETCvy7m5NurRWdY52Ls7t7oXCP2gIC/CNi9lh57yHzbhabPILTTQ++DUw0Glg2N2DJmK7b8nrkbprp03FaFGqElNqhuvsiWLlbz+byQQ9Oq7RRTujfsLB9lg0BACNTbpSd3P05xy8us1TryEJmo1WX6rTwYWDa3qB7ENNmVyMZW79auxDzPAONFTq+zWXWjxUeNJvRgOlt1wzqAHjwjILIbCdj6oqKP1XWj1rnK5OeX41zZJPPDwLIIpJFiZNxWa1fi3A29k+sgrjKS1/I07NrlMULzLS/XfIEVLpHDvORd5EjqVNFFklwP1ScnXeRaDvKDQLAJaJqtBlZyIpSvGCe9cm54friaKwysPDZPMs7WAulG5KjYt7Mo9U6Ko2iqrV1YRnVRyDXeNKMid5tOsf/tzt6HQrcaIgEI+IVAaKvNmsz3WzdhooAW2szMF8XDwHJBM0o34t1zY8t4NmLKq+WIoaUpStQF6osIcgOqcoksOYuh30w1e0N3YJmanJsJBYCATiActn8so/+6CbVbcPp0TwAGVveMHE0hXq2WgfHacrsrlgGYdtdhtHwedL/QaFq3p0veTCvslFPFMjl24kXZASIgk5JY3XpbVQ5pt9lavoOF68MfMHvQEHEYWIYwOZtIxtbUXrWRwzwos7hmWy98vliizmqXvjY3hY5IL6GJvQ7cTHmAe8yEREgKAiDQNYFY14dzPNoy5jWaYykuye4fY9FuoDCw7CacQ/kSo4VjatluZOUgopVZOTK+6vm3PH29R5vf7jT2XmGAu5WnHsoKPAFF2WA/A+1O++uwtwa5v7mp58NebXMvHQZW7gxtLUHc10kjy5Z6+ASI2lJwNoUqyhIvR3bXx1454L0KkfJINniRBwRAID2BcLP968uKYaK/gKUXwfV79fub4n0j0UnQMLCcpJ1lXWJkJWcZZlmCd7LFVe1+70jbXlI9eKvN3iupMRSy/2HQXjP8AgF/E5CJRuIZtl1LNlB0Q8X2iqyvINnDUGF9yf4tEQaWR9o2FNcXmfaItNmLKW95blor0agm4nnjcWT2d3HyAs/JQblGRUM6EAABAwQURXnAQLJck1QkIt57idQHtnMPQ67KBy0/DCyPtLhjb1gu4CGGilsG3xvBIW+kCU1baSRtzmlUbVXOZaAAEACBTgSc6CZMVjrfS12F8vLIsQo927PQqaEd3AEDy0HYuVbF3p36XMvwSn6+oFd6ZTyW/kbqQNegtF04EbrLK20IOUHASwTkJZbljTkis6Ld74X7m7w8JodtoGswixMjkkUeT2QRl2YyQniUBT51cnAXC/+OaZrygN0rqXM9rt94weCdLhVS9wrxBT7VzTPmatZU3082BxVt0z6x5EOgzS58BQEQsIwAPxd4aZuoZeV1UVBC1dazkTXLrV3+unEV0dbLsI0u1MChLgj4zoMlbwU1ddV8UuhdNvNZ91PGlYAQT4NGPNVUWy/p+CSqkt1B3bQWg9Od6nNbxfkCd2sbJY2rhY7Bk5s/NhAAAdsISKBncu6eWJE0slxnwMC4suYU85WBJcaVnLCMJmoQT5S7dzZ7aFC1Ub0Mqu/+ZPL2JG3kNne648YV3/T1m7/7mwwSgoCnCSjOvsi4zsiSe6282Mq919MN6QLhfWNgiZcjaVy191h1D7lCBlXzA3OHmwdW67M4utfFdAqPdJPqNyE3DAyVNzvxfIoX1DTsXDKo+mLguZSAvCAAAgYI8Izt5Zys3kBSq5LI/W1zzZroEqsKzLYcec7IcxTGVbYE2+fzjYGVnPpq1rg6RYO7o1Ldhm40tFg26xfXdM4Vfopz9t8qeGzE/WzcrBQjJ/tiss8p5wWfZzu4hGj2pWSRE96rLKAhCwhkR0DGfHLcQecnk2janfm6v+kvjqtn3pkcWpOX+2t2reXuXL4wsJLdR1GLUEfdZmglvVdW6XcKk+ZAYL1TtVn1bb4YOU56s/SbDw9ml/OClXD+5gPvlVXnDsoBAUMEdC9Wfl5AW+5vDnqz5F76/7d3Nolt22gYJiRlnxvUOcE4Fxgz+6ZxThBn30ydE6Q5QZIm+zgnqNO068hzgbonqHsDzbq2MO8Hia2qWBIlkhAJPlpYFgXi5wEFvPgAfAgDR/xclXo2tgmUhMC6uZk+2abQJcMuCq3jkvfUHszEozr297VHbBFGOX+rkZzPrFma1m1SaJmwsvV5ofGJPSU4x+blXZq1V408Q0QKgZUEws7l/Q1s7mZmzWq4fbO209KwmQGBiD9wXEk/nS/ScNPg3GGDVWJCK9eDeCVF8sac0cXaKh+mpKZhN2QjD39Ex3rNVI+mdcO04c9HL+qsG7MYOucfyXnoSTMZ3yZW93yb0ISFAATqIWADG03ZPVFseT0xbhlL0b59OnolwXU2HA4+VHXpYAP2YJBw7kRb6iXktswTwbcikIbAirHbwR72zL+6GWU2Tz6W9edjU2LLLCc3d3SoZpMdvMzfsYTiVk/kLoEX6ubbT0eXzvuxd4OL0XVmfqMmm6KcNTraMTPwR2pwjlvT8Hj/+t03F+NN+ed7CECgGQLDgXtuC9Cbib10rLLYu1Pl41R9j7VnY60R+22qd7VxK9tx60euR9mhc2rbvNo2CUXFYXGVTpiA1QikIrAasfCsQZvrgdWC5+zVLh36qnj/YTlpfGSxh0Wcqwpe4/Ww+0UWTVkdT1U/mRoki318axJOolniTI2ODGAK0TjzW3Nx+0UJ4OH14OXtX3IVAhCIQcAsRlom8NJ2msdIr0Qa1tcdKz9ypJ29WGjjvrj1Rg2aNWutate+yGXaF9IQWLYYMVgx4leWHuBDjQgWO3QbYVxKgF06N/ifRhmX+mzXvnjZyML5zNxEmAo41C8hmsm289ODX9BceyG/9ds2CaqlDOqkgadlrG9Lt/ERAhComcAPD8ffa6BmbXRec9RElziBNATW7LiXg5bU1V3lI5foyiWcZiOIVRlTB7+XPt5lZ8lMD65i2+HrMv+/fPtwPO5wEcg6BJIiMLx2j+cuWqx95xWBgE2BRkim0SQGjcYeK3Kth4qVVArpDP9sj9NKCczLFJjWWIZzGzHXGB9RQQACFQmYNVnD5ccVo0ntdjGh/V5XqUkILE13na0rJN8tEGiZ9WqkkaFyN1nIYW//tcZKI+WnvQVAwSHQYgLh1AtN3bc4i1Gzpg0AD6Im2MHEkhBYNrqwaZUO8o+d5YmsV63a9m9TlfxQw2MwMbFpz3Lsh4L0IACBcgSCTzrt7i0XOuFQtkZUGwBcgzv4bYdk1wkmIbCsEmxaBXPl+sdRJu5WLpwOvl36PTKcmMg0sbm+BvkWAhDYN4G33/z3uRbXnu07H3tL37nnJjTlBuKgyTyk0B4mI7CsomUBMJPleZOV3tm41SDIxN1aNrORYS/N7zNxpdFgZ58tMg6BnhF4+/XF016KLPUjb78eBwuefGwdNFjtkwbjjhZ1UgLLplfePrx4PF+MmEQF1fEkmGUvNAh1RNZgHD0UWYirBp8nooZAkwSsTe3V0pQgriQs5y+Jh7z4v4H3JAacSQmsopLNUqPFwvf0+by41td3E1dzy14nEPRFZM0XtN+revRFiUptbKAx9/FWIgsEgUCaBMKO3x4sbwiuY8xqt/Ca+29cuFLjv/s5aLvGAsyiSlJgWdEWrFkPZMq9mhW3X38LcWUsulTyBZHVqXxvwfjcRG+MelHD+NsW+do2aKr1sy2HED7sMtvpznpvQvjOeUZq96290hrK+0o1zd+DBOQK1zF5vU/u37E57/74+1N3/0tWYBVVYo2eTLn35PjTds+l+QMoCvvPd51TFacT/2ey9XyaN1oPFFtadWYLRDWNHUNcWU34mRPeeiplKRbt8rlcutT+jzphoZFMbtmZN+lEcTTo3IBy3Eid+HjPp1mi57MmzZSlEUAbIzXfXw/CgHcpqB3rtnSp1o9N/j5qzeiGyJIXWEX5bWGe/QDM1KlraXXaRSGLd20jVicexUJSJNnEe0qNVpgS1Ci3WCDaBK/b4hzeNDNNbuWJJRJvK9eu1+wQ8F3vXXvf1J+v/X7py7m1q/52SEIvwrTzUmkqfmzKUbSP64Dafg/W7iYymB9bf7nKKuucf1Sx1tfenoKLBitgbwSWFdZ+AGbqTFZoqXGdjTi0jTiRVwqNlon6dw8v7u+j4wsiqIEt5TLhv+niI6YO47yJJQPD4eDD1jxc/eJX9bJ9PrbOeL03NHQu6qSpwcWm0s8H8zZlON4Uto3fW3u1boAu9wx2Zm6TFqyJ2q2rNrLZNk+9ElgFnEWhldkCxS3N+0U8rXqX1UpORO+vGnG0Kq87ZKajjVbYbLFi/cIOFHa7pe6jkcx6ddu0wW6528Nd09qdEp/vIp7n9VKnFWsyuM5e74FopSRDZ1qz806JhDdhcFEpZ7vfbGUykRJ2tHenfwlWq03t1c0wiKu7u9PZeOd4Y4iOBOilwCrqxn6A1lHYGi2z/EhonRXfdeZdeTaLnDm/22eDEoNXhxqtcbAkztZaXcVgsy4N42aj0nVhtvluNNCgpMOvuTgc11SEiX5/O/GwetF0Um31omeulY6Ey3Ae3gxemnAvE3ZTGIunLULTLKZhDXCbB/LFzMdsWcnVJr7ZwL/YGKZKAOcuqtzepntdmzLThryY+TMo9Nkc83Eb8nRLHiYSg+c2Ag6N9C0B6rqkxYy5y/znuuJbjkejvJ2fwWc/5Sfhx+6zg+V49/JZYtdriqatVsRnPx+9l2n/pBIbdRSdtl7NC2+/8+uR/6yH77ACj1r8mFEvsxo4/SU/vJmGtqaKdaSWOqnwTKy91RaHqz39ToHytQHjfGkDwTdh2rxkes9+zk+1c+ZVyeA7BTODQdP92k4Z2+GmnTu3HdLq3C2zRjjL5wv6cnVOB3suxLmmND/a2gI9gJMYeWmzwCrKH/Lo/JPK4qGIcIt3Gy075z7YOpIuNAoVOnPbUfR0m8Z4C4x7CRoGUyP/oxLPd8hArR35s5/+/UrWrNMd8qGtommIXiu7iazrqX+/k/CVJWbodJ5nB05F0LN3cDOcfpcN3HHkfmU2OHeaQt2S0/z38ruqqYoAXv+Iqw6DxW99qM58i8DaoqpmPwo1xgN/pO3vhzs1AlukN+u8s0tZRT5qV8U4lqhazGIXBFaR39AA2PqAmfUx1/WmGoKxOsOPXRFVBZ/iPYyinUah5QcMtpbMpqCvijhSev/Pp/x7OU00q0K558Wm5XVoet2/x/lAwayMByX5juV/6fm2HWXJuPcWzH7H01F2qjp5UToTtgZV04x110np9CsEDJY7r37Fh515eYWobr019CPej20HbZUB0rNPRzYYOb41kbou2g54O+sxkRcCq2JFhkZRDaJz2YF3/itrHPVA391SfI1DNsxHz2Dwh8SbvK+3Yxt8lwTWclX+1XBl/l/zTitfDlPi81hhJlrD9Jv5Zmnr9F+JcnwRJEyxrhCjRaOsTssWC199cXNiF4I4v6Pp09WdXDRRPRfAj4T4C6t5qBcXBl2tnYqu69FoU53UVaYy8YR260YDeOtTMn80vyffeK8tpje/d3o3R53WXtXVj8zbivcb81AxgDlsTWnAgMCq+ECkfnuXBdaquplNQ6y3VqQkpFZx4DoEIACBTQSC4Ku+Nm5TMpkJw5SmB63Ao82lJgQE0iKQ0ggprZqhNBBoJ4GZVWn6xDunTT9/b4xI3dIbTVyp2rvow23T04rA2kSI7yEAAQhAoJcEwjTlyL/X7kat7dRCgSUKQWw5d3gz8qfaQGJr8xrf2b2UhcY+xhRXVgi51jhrrDB7iniwp3RJFgIQgAAEINBaAkFgjPzvymC5hd1ygSKh9bvt1JUwO2htwUpkzNZc1eAyo0RK8yDaOJLiWk8sWOUfAUJCAAIQgEAPCFSy3syE1kkXLVrBYjecvtB83WnMap6fahAzyShpYcGKgplEIAABCECgKwTMF5fyWs5tx6pCFRatT0efwy68VeFact12r97c8b/u7I9t13Ikar0yHFiwdn0ouA8CEIAABJIjMBND/rDGguWyCOXyIyVnstm5+TWs4o+qxnyFqIJbkOAHzptbkOivVK1XBhKBFf1xIkEIQAACEGgrAfkz/G55MXtNeb0rAXOio3JOJLaCR/Vs6i5insxRlMPWiN3csbVlcrDr/UFxPfq7HIu+fnxxFT3dSAkisCKBJhkIQAACEGg3gSA8slqtV6sKHMSWLFtaGJ+9//bTkY7c0mHXJriGcjK95TE2qxJZvG4+DbUmKJ9m/tGNlXEP1qrF/Oj/iXnfX7qW1EcEVlLVSWEgAAEIQGBXAtcjncqx680V7lOaJngOg+CSC3ZZuILjTV2Td3Yv8TX4n074uPLmrb3Ey4SUBTNP8NJR85NF9EnX9lE+y8vyy8427eLRRsvlWPcZgbWODt9BAAIQgAAE9kFgdiblgRad50EaSRmVFUeLxqmy90Qtoha2v/t6fB41zT0kxi7CPUAnSQhAAAIQgEAfCUj8Xdph6X0oOwKrD7VMGSEAAQhAYCMBHY58tTEQAaoQmIwG6U8NFoAQWAUJ3iEAAQhAoNcE5t7EJ72G0GDhte7qcRML+BvMcqWoEViV8HEzBCAAAQgkRcD7s6TK05bCePdU/r/GbclOjHwgsGJQJg0IQAACEOgEAbkOeKOMYsWqs7Ykrt5+Mz6rM8ouxIXA6kItkUcIQAACEIhCIEwT+n4swo4AdJL1VFwZWwRWhCeMJCAAAQhAoDsEgrVFwqA7OW5lTifDgXvQR8tVURsIrIIE7/EJlHSaFz9jpAgBCPSdgAkDW5Qt51NXfWexQ/nHw2t3r08L2m9jhMC6jQrX/iLQ6KJE81LMCwIQgEBLCdihzPLZdF/OPp8jtMpVksvcy7cPLx6k7qW9DA08uZeh1PcwNoKbeRWulwQjw3p5EhsEIFA7gblQeK2IXz/7KT+ZHwZ9WHtC3Y9wrCnB5323Wi1WIxasRRr8v4rAeNUXla7rYNNK93MzBCAAgYgEbNrw3cOL+5o6fKBkzyMm3d6kwgBcuwTNatXAIdXtLfjmnGHB2syo9yG8dx9c5k9qBqGT1GmgamZKdBCAQAQC86UT49Mf84PpKDOr1pNGrPwRyrJzEiaspjYd2D/3C2WZtfIcyLKZJ1w8Ajrd/bNSy+tK0ebpf3g4/r6u+IgHAhCAwD4JfPspP3bOP5LQOlY+7u4zL02mbWcJOu/e9Hl3YFm+CKyypHoe7vSX/PBm6n+tA4P9QM3MXkdcxAEBCECgbQQSFFsTLfI/Hzr3hmnA8k8bAqs8q96HtAWemfPvK4IIvlH4kVakyO0QgEAnCEhs5VrsnE8z/0gdbncWx4cpQH/u3eDCdlN2AnbLMonAalmFtD07lUSWfrAaAfXqsM+21yf5gwAE4hHQmq2716Ps0ASXz/yRUjbB1YrpxDD157JLrau60PrY8fzg63hwEkwJgZVgpTZdJJsuvJ7691uNxlx2Jn8yz/GN0nTtED8EINAlArZQXqLrIIgu578Ki+VddtDUovkgpOysRe8vs8HgD+9tyUa/DmGO9XwgsGKRTjCduTXrkYp2vKJ4s3n7P91LRkMrCHEZAhCAwAoChcWr+NpEWPH/pnfvsomJpyIcIqogEe8dgRWPddIp2TqDxQKOrrMrRNUiEf6HAAQgAAEIQAACEIAABCAAAQhAAAIQgAAEIAABCEAAAhCAAAQgAAEIQAACEIAABCAAAQhAAAIQgAAEIAABCEAAAhCAAAQgAAEIQAACEIAABCAAAQhAAAIQgAAEIAABCEAAAhCAAAQgAAEIQAACEIAABCAAAQhAAAIQgAAEIAABCEAAAhCAAAQgAAEIQAACEIAABCAAAQhAAAIQgAAEIAABCEAAAhCAAAQgAAEIQAACEIAABCAAAQhAAAIQgAAEIAABCEAAAhCAAAQgAAEIQAACEIAABCAAAQhAAAIQgAAEIAABCEAAAhCAAAQgAAEIQAACEIAABCAAAQhAAAIQgAAEIAABCEAAAhCAAAQgAAEIQAACEIAABCAAAQhAAAIQgAAEIAABCEAAAhCAAAQgAAEIQAACEIAABCAAAQhAAAIQgAAEIAABCEAAAhCAAAQgAAEIQAACEIAABCAAAQhAAAIQgAAEIAABCEAAAhCAAAQgAAEIQAACEIAABCAAAQhAAAIQgAAEIAABCEAAAhCAAAQgAAEIQAACEIAABCAAAQhAAAIQgAAEIAABCEAAAhCAAAQgAAEIQAACEIAABCAAAQhAAAIQgAAEIAABCEAAAhCAAAQgAAEIQAACEIAABCAAAQhAAAIQgAAEIAABCEAAAhCAAAQgAAEIQAACEIAABCAAAQhAAAIQgAAEIAABCEAAAhCAAAQgAAEIQAACEIAABCAAAQhAAAIQgAAEIAABCEAAAhCAAAQgAAEIQCAGgf8DEISjl//Bvn8AAAAASUVORK5CYII=;" vertex="1" parent="1">
          <mxGeometry x="-110" y="265" width="161.54" height="140" as="geometry" />
        </mxCell>
        <mxCell id="q4eiFpsEOsDT-pMDmDDZ-60" value="" style="shape=image;verticalLabelPosition=bottom;labelBackgroundColor=default;verticalAlign=top;aspect=fixed;imageAspect=0;image=data:image/png,iVBORw0KGgoAAAANSUhEUgAAAgAAAAIACAYAAAD0eNT6AAAAAXNSR0IArs4c6QAAAERlWElmTU0AKgAAAAgAAYdpAAQAAAABAAAAGgAAAAAAA6ABAAMAAAABAAEAAKACAAQAAAABAAACAKADAAQAAAABAAACAAAAAAAL+LWFAAA5eElEQVR4Ae3dCbgkVZnm8UJZClmLfVOKHUQBQUAEBEVBRGlcwKVbxX1B0VFp29EZl1HncWxbbdu2bRcQx2XEtW0VFRSQRQVlURRZC5ECSqCAAmR33lfu7Upv3cybGXEizvY/z/PVvZU348R3fudE5MnIiMh58ygIIIAAAggggAACCCCAAAIIIIAAAggggAACCCCAAAIIIIAAAggggAACCCCAAAIIIIAAAggggAACCCCAAAIIIIAAAggggAACCCCAAAIIIIAAAggggAACCCCAAAIIIIAAAggggAACCCCAAAIIIIAAAggggAACCCCAAAIIIIAAAggggAACCCCAAAIIIIAAAggggAACCCCAAAIIIIAAAggggAACCCCAAAIIIIAAAggggAACCCCAAAIIIIAAAggggAACCCCAAAIIIIAAAggggAACCCCAAAIIIIAAAggggAACCCCAAAIIIIAAAggggAACCCCAAAIIIIAAAggggAACCCCAAAIIIIAAAggggAACCCCAAAIIIIAAAggggAACCCCAAAIIIIAAAggggAACCCCAAAIIIIAAAggggAACCCCAAAIIIIAAAggggAACCCCAAAIIIIAAAggggAACCCCAAAIIIIAAAggggAACCCCAAAIIIIAAAggggAACCCCAAAIIIIAAAggggAACCCCAAAIIIIAAAggggAACCCCAAAIIIIAAAggggAACCCCAAAIIIIAAAggggAACCCCAAAIIIIAAAggggAACCCCAAAIIIIAAAggggAACCCCAAAIIIIAAAggggAACCCCAAAIIIIAAAggggAACCCCAAAIIIIAAAggggAACCCCAAAIIIIAAAggggAACCCCAAAIIIIAAAggggAACCCCAAAIIIIAAAggggAACCCCAAAIIIIAAAggggAACCCCAAAIIIIAAAggggAACCCCAAAIIIIAAAggggAACCCCAAAIIIIAAAggggAACCCCAAAIIIIAAAggggAACCCCAAAIIIIAAAggggAACCCCAAAIIIIAAAggggAACCCCAAAIIIIAAAggggAACCCCAAAIIIIAAAggggAACCCCAAAIIIIAAAggggAACCCCAAAIIIIAAAggggAACCCCAAAIIIIAAAggggAACCCCAAAIIIIAAAggggAACCCCAAAIIIIAAAggggAACCCCAAAIIIIAAAggggAACCCCAAAIIIIAAAggggAACCCCAAAIIIIAAAggggAACCCCAAAIIIIAAAggggAACCCCAAAIIIIAAAggggAACCCCAAAIIIIAAAggggAACCCCAAAIIIIAAAggggAACCCCAAAIIIIAAAggggAACCCCAAAIIIIAAAggggAACCCCAAAIIIIAAAggggAACCCCAAAIIIIAAAggggAACCCCAAAIIIIAAAggggAACCCCAAAIIIIAAAggggAACCCCAAAIIIIAAAggggAACCIQUWClkZdSFAAJRBR6ita+n2GAq1tfPNRWrKVad8XP6MT08727FPUN+LtPjNylunIqb9fPPCgoCCGQuwAQg8w4k/WoE/AK+ULHVjNhM/59+wV+g3z0J6LLcr8qXKqYnBIv1+1UDcaV+v1pxr4KCAAIJCzABSLhzSK1KgbXV6l0Uu07FjvrpF32/0Hf94q5VBCkPqJZrFZ4MXKK4cCou0s/bFRQEEEhAgAlAAp1ACtUKbKKW76OYfrH3z4WKUrdLf3TgowXTE4IL9Ps5iiUKCgII9CxQ6o6mZ0ZWh8BYAjvoWfsp9p/6uc1YS5X/pMvUxJ8ozpz6eXn5TaaFCMQXYAIQvw/IoFyB7dS0QxUHKvZVbKSgzC1wvZ5yluI0xXcV/iiBggACgQWYAAQGpbqqBXyi3gGKw6Zi26o1wjXe5xF4IvAdhY8UcIKhECgItBVgAtBWkOVrF9hQAEco/KJ/kMKX3VG6E7hNVZ+i8GTgWwpfokhBAAEEEECgFwGfqX+04mSF34365DaifwPfu8ATgb9TMPESAgUBBBBAILzA6qrySMXXFXcpeMFPy+BO9clJimcp5isoCCCAAAIItBLYW0t/VuFDz7zo52Fwq/rqU4o9FBQEEEAAAQTGFlhLz3y14nwFL/p5G5ynPnyFYg0FBQEEEEAAgVkFHqNHP6nw/e954S/LwEcFPq7wXRYpCCCAAAII/OWue8+Uw9kKXvTrMDhDff0MBVdBCYGCAAII1Cbga/ZfrvA15rzw12nwa/X90YpVFBQEEEAAgcIF1lH73qpYrOCFHwOPgWsUb1b43A8KAggggEBhAgvUnvcr/FkwL/wYzDYGlmpsvFvh+zxQEEAAAQQyF/DZ329XeOc+206fx3CZOQZ8d8HjFL73AwUBBBBAIDMBf8Z/rMJfLDNzB8//MRlnDFyrsePLQTlHQAgUBBBAIHWBhyrBlygWKcbZyfMcnOYaA/56Yt9u+CEKCgIIIIBAggL7K6cLFHPt0Pk7Rk3GwLkaW49LcNyTEgIIIFCtwOZq+RcVTXbqLIPbJGPgAY2zExQbKygIIIAAApEE/Dn/Pyi4cx8v4pO8iId4rq8meZNiZQUFAQQQQKBHgUO1rksVIXbm1IFj0zHwG43Bg3oc96wKAQQQqFZgfbX8C4qmO2yWw66LMXC8xuS61W6VNBwBBBDoWOA5qv8GRRc7cOrEte0YWKyxeXjH2wDVI4AAAlUJ+ISrryra7qBZHsM+xoBPSPWRKgoCCCCAQAsBX399o6KPHTfrwDnUGPCRqqNajHsWRQABBKoV8OepJylC7ZCpB8sYY8Dnq/AlQ9XuxtJuON+HnXb/1Jrdvmq4D6M+olYA2l2UwBVqzfMVvpEQBYFkBHzbVAoCqQj4VqvvUJyg8Lf3URAoQWA9NeJoxd2KsxUUBBBAAIEBAd/N78eKGIdpWSfufY2B72uMcxfBgQ2fX+MJ8BFAPHvWvFzgafr1RAVnTi834bdyBZaoaS9QnFpuE2lZDgJ8BJBDL5Wd49vVvE8p1ii7mbQOgf8S8Fj/W8UdinP+61F+QQABBCoR8E7wJEVfh15ZD9YpjoH/q21g9Uq2eZqZmAAfASTWIZWks7Xa+U3FoytpL81EYJTAL/XHIxTXjHoSf0MgtIDPuqYg0KfAk7WycxW8+PepzrpSFthdyZ2neELKSZJbeQJMAMrr05RbdIySO1nhy6IoCCCwXGAj/XqK4uXLH+I3BLoV4CTAbn2p/UEBf9T0AcX7FEw6HzThXwRmCnh/7C8T8jZymoKCQKcCTAA65aVyCayi+JziNWgggMBYAgfoWb4L5ncVD4y1BE9CoIEAJwE2QGORsQXW1jO/pvDn/hQEEJhMwBMAf6GQLxekIBBcgAlAcFIqnBLYVD+/p9gVEQQQaCzgkwMPU/jmQRQEggowAQjKSWVTAtvqp09o2hIRBBBoLeAvE/JRtEWta6ICBAYEmAAMYPBrEIEdVMuPFJsFqY1KEEDAAr9XPEnhyQAFgSACnJEdhJFKpgR21s/TFbz4MyQQCCvgkwK9bW0ftlpqq1mACUDNvR+27buouh8r+KazsK7UhsC0gL8x05OAnaYf4CcCbQSYALTRY9lpgcfoFx/233D6AX4igEAnApuo1tMU3EmzE966KuUcgLr6u4vW7qFKf6hY0EXl1IkAArMK3KRHfWLgBbP+lQcRGEOACcAYSDxlqMD0Z/7rD30Gf0AAga4E/qiK91f8rqsVUG/ZAkwAyu7fLlu3UJWfpeCEvy6VqRuB0QK/15/3U/BNgqOd+OssApwDMAsKD80p4M8hfZ0/L/5zUvEEBDoV8NUB/giO8286ZS6zciYAZfZrl63yZ/0/UGzT5UqoGwEExhbwvTf8LZu+9TYFgbEFmACMTcUTJbCG4jsKzkBmOCCQlsDuSuc/FPPTSotsUhZgApBy76SVm7858quKfdJKi2wQQGBKwN8i+GUF+3WGxFgCfB3wWEw8SQL/ong+EgggkLTAjspuTYU/pqMgMFKACcBIHv44JXCsfv5PNBBAIAuBxyvLxYpfZpEtSUYT4DLAaPTZrPhQZfptBZPFbLqMRBGYd68MnqrwHTopCMwqwARgVhYenBJ4lH76Wn/OLmZIIJCfwFKl/DjFpfmlTsZ9CDAB6EM5z3VspLR/pliYZ/pkjQACErhcsbfiZjQQmCnA2aIzRfi/BVZWfE2xUEFBAIF8BbZV6l9RsK/Ptw87y5zPdTujzbriDyr752bdApJHAIFpga31iyf1nA8wLcLPvwjwEQADYabAs/SA3/1TEECgHIE/qylPV3y3nCbRkrYCTADaCpa1/HZqznkKTvorq19pDQIW8HkAvmPg1f4PBQE+F2IMTAusrl++quDFf1qEnwiUJbCemnOSYtWymkVrmgpwDkBTufKW+5SadEh5zaJFCCAwILC5ft9A4e/0oFQuwASg8gEw1fwX6+e7oEAAgSoE9lQrf6u4uIrW0sihApwDMJSmmj8sVEsvVHDov5oup6EI/OV8AH+rp28ZTKlUgAlApR0/1WyfA/JjxRMyY3jLVN7X6+ddCrfDExjfvOgRCp/MuNtU+DpoCgJNBS7Tgucqfq3wHfV+r1iiWKa4X/EwxaaKJys+oMip+AuDfLtgXyFAQQCBygSOU3u98ecUV07YR5vo+Ucp/k1xrSKntpJr//21SGPkXxXPVKyvGLf4zZTHZm59dsy4DeR5CCBQjoAP//ndc247rPe26ALvpPdS/G/F1Yrc2k6+3fTZFRoLHlc+atSmvEcL59ZHdyjnHdo0mmURQCAvAV8G5M/9c9tZOd+dAlF7MnCQ4kSFd4I5WpBz8367XX3+GYW/OjdU2VkV5dgnP1feK4dCoB4EEEhbwO+Ac9xRXdAR6wLV649DOCqQ57iYZCz7M/03KNZRdFEuVqWT5JPKc9/ZBQZ1IoBAWgI+zHmvIpUdzyR5tDn8P04v+LLYZyv8LYiT5MVz0/c6W316hMInjHZZcp1c3y2UUEfXuvSlbgQQaCjgnZ8P9+X6grVPw3Y3WewQLXRWxla59nHovE9VHx6o6Kt4jIZuQ1/1naHc/dEYBQEEChR4vdrU184k9HpuVO5dv3ubrct9nsCZGbuF7odc6vOL2QGzdWjHj/koku+5n4vTzDxf1rEP1SOAQAQB3wL0VsXMDT6X/38pgtngKn1Z2O8y9suln9vm+Sv1kb/1Lmbx/fbbtiPW8jcp9w1j4rFuBBAIL/A1VRlrpxJiva8NTzJxjT5T+nWKPypCtIk6wjneoD55hSLGUSKt9q+Kx0jOffv5v2oN/0EAgawFnqHsc94hOfddE+oB33XwQ4pcT6bMfSwM5n+P+uGDipRuZb2L8hnMMcffn6w2UAoX4ISPwjtYzZuvuESxZcZNvU25+1K9BxJrw6OVzycU+yaW153Kx59D3zIVvubd9zrw4z7b23Gfwrey9YuT3zX76MZqCo8X397WsZbCl8vZ3l8lu4YipeIT/Pxu2+M7peLzAPxxW2pekxj5tsePUniSSylUwBs9pWyBN6p5Ob/4u3d+oUjtxd95+fPm/RUvUXxAsYGiy2ID3874qqn4g35eo/AXulyn8GHwGxV/UnRRPEHw58MbKTabii308+GKhYqtFf5/14fhl2gdb1J8QZFi8cTqlwqPjVzL9kr8NYp/zrUB5I1A7QLeUfudiN/l5Rw57IT8Dvn4QM6+RfP5Cn8W+zaFr19/pMIvwKkX57iT4m8Ub1WcqPCLoSclIcbgZ1WPrVMvHrMh2huzjpvUBh/9oSCAQIYCPjwdcwcSat2vzMj+MOXqd+njtt0v9uco/ILxIoUPu5Z4ZM6HxXdWvFDxUYXb7LaP67RIzz1YkUt5uRIdt20pP+9DuYCTJwIILBfwO0Z/zpvyzmXc3FL7jH258uy/rauHjx9i78/mv6l4s2JvxaqKWovbvpfiTQqb+B3nbGPik3p8TUVOZT8lO1tbcnvM54tskxM8uSKAwLx53xVCbjubYflunGmH+mjAlYpTFMcpdld0/fm4VpFt8UnJuyneoviBwnaHKnIsmyjpYeM5t8e/mmMHkDMCtQo8RQ3PbSczLF8fJuZqlVpHct7tvrOg7dBHNCgIIJCBwHnKcdgLam6PX56BNykiMJvAFXowt+1tWL5nzNZAHstbgMORefffbNk/Qw/uMdsfMn1scaZ5kzYC1xVE4EsaDyqoPTRFAkwAyhsG7yysSUsLaw/NqUfAJzWWVErbt5TUN43awgSgEVuyC5X27t/QtySrTWIIjBYobexyFGB0f2f3VyYA2XXZyIRLnKHfNrLF/BGBdAWWpZta48xK3Mc0xsh9QSYAuffg8vyfrl9L+ux/umX+shcKAjkKlDh2OQqQ40gckjMTgCEwGT5c6sz8gQz7gpQRsMB9hTK8q9B2VdcsJgBldLnPzn1sGU1ZoRVMAFYg4YFMBEq9f4XvCfD4TPqANEcIMAEYgZPRn/5bRrlOmqq/XIaCQI4Cq+SY9Jg5l7zPGZMg/6cxAci/D7dXE56WfzOGtiDn71Qf2ij+UIXA6gW38plq28KC21dF05gA5N/Nb1ATSj3U6N7J7Utg8h9RtCCUwFqhKkqwHn+74+sTzIuUJhBgAjABVoJPXaCcXpxgXiFT2iBkZdSFQI8C6/e4rhir8lcelzzJiWHa6zqZAPTKHXxlr1SNpR8iz/WbAIN3NhVmJ+BvBCy5rK3GvbTkBpbetpIPHZfedyurgVcptii8oTeqfRsW3kaaV6aAx27pRwH8lc3bKbhaJ8MxzBGADDttKuXD9bP0F3831R8BcJjREpScBDxmS3/xd39srTjUv1DyE2ACkF+fTWf8sulfKvi5TQVtpIllCWxbVnNGtqamfdFIiNz+yAQgtx57MN/N9eOQPFNvlPXOjZZiIQTiCTwy3qp7X7NvQ75R72tlha0FmAC0JoxSgc/892U4tZRdamko7SxGoKYx6xsevbCYnquoIUwA8utsn7j50vzSbpXxnq2WZmEE+hco9dbcwyRfMuwPPI4AAuEEDlRVf64sbld7azrioeZSMhbwWF2mqG073TvjPqsydY4A5Nfttb37dw/5Xgd75NdVZFypgMdqjXew5GTAzAY8E4C8Osw7lefklXKwbJ8SrCYqQqBbgVrH6nPFOr9bWmoPKcAEIKRm93X5bNuSv2BklOBho/7I3xBISKDWseo7A9Z0dVJCQ65ZKkwAmrnFWurIWCtOYL3+fHGzBPIgBQRGCXiM1vxZeM37qFHjIsm/MQFIsltmTcqfg9d8xy2PVR9ipCCQssDzlFzN+9VnqP2rpdxB5LZcoOaBulwhj998WLHWw//TPXTX9C/8RCBRgTsTzauvtPwxwMF9rYz1IFCLwFfU0NouKxps7z/X0tG0M3uBj1a+rZ6YfQ/SAAQSEniYcvG18IMviDX9frLazn0AEhqQpDJSwGP1+4qattHBtt6itq86Uog/IoDA2ALP0jMHN7CafvfXja43thRPRCANgQVKw2O3pm11sK21XgmRxugbMwvOARgTKvLTDo+8/lirv1srfrbi5lgJsF4EGgos1XK+Z4fHcI3FJwNSEEAggMBi1TE4u67l9zcGsKMKBGIKHKuV17K9DrbzqpjorBuBUgR2UUMGN6xafv+e2u0vPqIgkLOAx7DPYallux1s53Y5d1wNufMRQPq9XOOdtW5Vt/i+4t6ZUBDIWcBj2GPZY7q2UuO+K6s+ZgKQfnfVuBEdp27xxx4UBEoQuFaN8JiurdS476qtj2lvhwK+/M83vxk8rFb672d06EnVCMQS8EcBP1GUvv0Ots+XLnM5YKwRx3qzF3iaWjC4QZX++31q767Z9xoNQGB2AZ/P4zFe+nY82L4nzk7BoykI8BFACr0wPIfavlb030Vx4XAO/oJA1gIXKftPZd2CyZM/ePJFWAIBBCxwnmJwNl3y7z5cuJEbTUGgYIGN1bZlipK35cG2+WMPSqICHAFItGOUlj//r+lw+EfU3iXpdgeZIRBE4AbVUtP3WjxW7V0liByVIFCRwBPU1sGZdMm/+xKpdSvqW5pat8ACNf82Rcnb9GDb9qq7u9NtPUcA0u2bx6ebWvDMPqEa/QUiFARqEPBtgj3mayk17ctq6VPa2bHAt1T/4Cy61N99meMmHVtSPQKpCWyqhPw9AaVu14Pt+kpq+OTzoABHANIdCfukm1rQzLxzuD5ojVSGQPoC1ynFk9JPM0iGtezLgmBRCQLbimBwBl3y74+juxGoVMBjv+Rte7BtD6+0j5NuNkcA0uyevdNMK3hWF6jGnwavlQoRyEPAY/9XeaTaOsta9mmtofqsgAlAn9rjr8t3DKuhnFhDI2kjAiMEPjfibyX9qZZ9WlZ9xgQgze56dJppBc3qftX2paA1UhkC+Ql4G3ggv7QnzriGfdrEKLEXYAIQuwdmX38NG8tpajon/83e/zxaj4C/9fLMCpr7qAramF0TmQCk12W+Ic4W6aUVPCNf5khBAIF5875RAcLWaqPvbkpJSIAJQEKdMZVKLTNlJgDpjT0yiiPwn3FW2+ta/Vqzc69rZGVzCjABmJOo9yfUcPj/N1L9fe+yrBCBNAUuV1qO0kstb26y6UcmAOl1VQ0TgB+nx05GCEQVODXq2vtZeQ37tn4kA62FCUAgyIDVPDJgXalW9aNUEyMvBCIJnB5pvX2utoZ9W5+erdfFBKA1YfAKtgpeY3oVnpVeSmSEQFSBs6OuvZ+V17Bv60cy0FpWClQP1YQRWFnV+MtxHhqmuiRr+YOy4ragSXYNSUUW8GWxG0fOocvVe9/mKwF8i2BKAgIcAUigEwZS8OV/Jb/4u6nnDrSXXxFAYLnAL5b/WuRv89WqTYpsWaaNYgKQVsctTCudTrK5qJNaqRSB/AVq+F6ALfPvpnJawAQgrb6sYeP4bVrkZINAMgIXJ5NJd4ks7K5qap5UgAnApGLdPn9ht9UnUTsTgCS6gSQSFLgswZxCp7QwdIXU11yACUBzuy6WXNhFpYnVeWVi+ZAOAqkI1LBtLEwFmzzmzWMCkNYoKP3s+FvFfXta5GSDQDICS5TJn5LJpptEHtFNtdTaRIAJQBO17pbZsLuqk6j5miSyIAkE0hXwtwOWXDYouXG5tY0JQFo9tn5a6QTP5obgNVIhAmUJlP4V2aXv47IajUwA0uqu9dJKJ3g2S4PXSIUIlCVwU1nNWaE1TABWIIn3ABOAePYz17y6HnCUXJgAlNy7tC2EgM+TKbmso8b5jqeUBASYACTQCVMp1DAzvi0dbjJBIEmBZUlmFTap0o90htXqsDYmAB3iTlh1DROAeyY04ekI1CZQ+lUA7s8a9nVZjFsmAOl0Uw0bxb3pcJMJAkkK1LCN1LCvS3JwzUyKCcBMkXj/r+Gw2H3xeFkzAlkIPJBFlu2SrGFf106op6WZAPQEPcZq/DWZpZfSv+mw9P6jfd0L1HCCXA37uu5HSoA1MAEIgBioilUD1ZNyNTXs3FL2J7f0BVZJP8XWGdawr2uN1EcFTAD6UB5vHTVsFDXs3MbrbZ6FwOwCNWwjNezrZu/dxB5lApBOh9SwUXAEIJ3xRiZpCtQwAVgtTfr6smICkE6f17BR1LBzS2dEkUmOAjVsIzW82cli7DEBSKebatgo5qfDTSYIJClQwxuBGvZ1SQ6umUkxAZgpEu//NWwUvg0oBQEEhgvUsI3UMMkZ3sMJ/YUJQDqdwQQgnb4gEwRiCdQwAahhXxdr/Ey0XiYAE3Hx5JYCNezcWhKxeOUCbCOVD4A+m88EoE/t0euq4S557NxGjwH+ikAN20gNtzvOYiQzAUinm2rYKNZNh5tMEEhSoIZtpIZ9XZKDa2ZSTABmisT7fw0bxYbiZczFG2OsOW2B1ZUeRwDS7qOismNnnE531jAB8I2ANkqHnEwQSEpgs6Sy6S4Zvha8O9uJamYCMBFXp0+uYQJgwFp2cp0OFiovUqCWbaOWfV3yg5QJQDpdVMusuJadXDoji0xyEdg0l0Rb5lnLvq4lU/eLMwHo3njcNSwb94mZP48JQOYdSPqdCdSybdSyr+tsoISqmAlAKMn29dzavoosatg6iyxJEoH+Bbbpf5VR1ljLvi4K7iQrZQIwiVa3z61lo9i+W0ZqRyBbge2yzXyyxGvZ102mEuHZTAAioA9Z5S1DHi/t4Vp2cqX1G+3pXqCWyXEt+7ruR0zLNTABaAkYcPFaZsXbymylgG5UhUAJAr4//iNKaMgYbahlXzcGRdynMAGI6z+49lo2Cn8lcC07usH+5XcERgn48/+HjnpCQX+rZV+XfJcxAUini7xRPJBOOp1msluntVM5AvkJ1LJN3K2uuSO/7ikzYyYA6fTr/UplSTrpdJrJ7p3WTuUI5CdQyzZxfX5dU27GTADS6tvr0kqns2xq2dl1BkjFxQnsUVyLZm/Q4tkf5tEYAkwAYqgPX2ctG8djhhPwFwSqFKhlm6jlTU4Wg5gJQFrdVMvGsbnYHRQEEJg3z5fGrlsJRC37uCy6kwlAWt1U08ZxQFr0ZINANIGatoVajnJGG0yTrJgJwCRa3T/32u5XkcwaatrpJYNOIkkKHJhkVt0kVdObnG4EA9bKBCAgZoCqFgWoI5cqmADk0lPk2bVATdvCVV1jUv/4AkwAxrfq45mX97GSRNaxg/Ko5dvPEiEnjQQFfAOgLRLMq6uUruiqYuqdXIAJwORmXS5xtSq/r8sVJFb3YYnlQzoI9C3w9L5XGHF9d2ndf4i4flY9Q4AJwAyQyP/1i78nAbWUw2tpKO1EYIhATduAD///eYgDD0cQYAIQAX2OVdb0McBBslh9Dg/+jECpAuuoYfuX2rhZ2lXTvm2W5qf3EBOA9Pqkps/I/OJ/cHpdQEYI9CJwqNaySi9rSmMlNe3b0hCfIwsmAHMARfjzJRHWGXOVL4i5ctaNQESB2sb+7yJas+pZBJgAzIIS+aFfRV5/36v3Z6A+FEpBoCaBDdTYp9bUYLX1osram3xzmQCk10W1bSTz1QVHptcNZIRApwLPU+01Hf73yX+1vbnpdACFqJwJQAjFsHXcrOpquiOg9V4clpDaEEhe4EXJZxg2wUWqblnYKqmtrQATgLaC3Sxf21GA/cS4azeU1IpAcgJ7KaM9k8uq24Rq26d1qxmodiYAgSADV1PjobJjAxtSHQKpCtQ41pkAJDgamQAk2ClK6YI00+o0K58R7ROjKAiULLCpGndUyQ0c0rYLhzzOwxEFmABExB+x6p+P+Fupf/LJgMeU2jjahcCUwOv1s6aT/6Y7/mfTv/AzHYGV0kmFTGYILNH/N5zxWOn/vUUNXKi4tfSG0r4qBdZXq3073LUqa71Pat6isjZn0VyOAKTbTT9NN7XOMltXNb+xs9qpGIG4Am/R6mt78bd4jfuyuCNtzLUzARgTKsLTat1oPAFYEMGbVSLQpYDPb3ldlytIuO5zEs6t6tSYAKTb/bVuND4K8K50u4XMEGgk8F4ttWajJfNfqNY3M/n3HC2IJrCG1nyfwnfQqi3uVZt3UlAQKEFgNzXifkVt27Hbe49ivoKSoABHABLslKmU7tDPX6SbXqeZrazaP9LpGqgcgf4EPqpV1bqv9dn/d/VHzZomEah1UE5iFPO5p8ZceeR1+2uCa/u2tMjkrL4DgZepzid0UG8uVda8D8ulj8gzUYGDlFeNhw2n23yT2r9xon1DWgjMJeBL325RTI/nGn/uPxcSf0cAgdkF/NnZnxQ17jim2/yN2Wl4FIHkBb6rDKfHcY0/b1f7a7zpUfIDkwTzEfAhtBp3HoNtflU+3UWmCPxFwPf7HxzDNf7+PcZC2gKcA5B2/zg7PkN78IRAn0lNQSAHgb2V5D/mkGjHObLv6hiY6ssXeIyaWOO7h5ltvkwO65Tf3bQwcwHf7vdqxczxW+P/d868L0kfgSQErlEWNe5AZrb5B3LwJYIUBFIUWFVJnaGYOW5r/P8VKXYQOf21AB8B/LVHqv/7dqqJ9ZzXU7S+T/S8TlaHwLgCn9UT9x/3yYU/j31W4R1M8/oTeKpWVeO7iGFtfkd/9KwJgbEE3qdnDRuvNT7uS5gpCCAQQGA11bFMUeOOZFib3xTAlSoQCCHgCemwcVrj4773AZf/hRhZ1IHAlMDX9LPGncmoNh/D6EAgssBxbJcr7Je+HLlPWD0CxQk8Xy0a9WJY69/+obiepkG5CLybbXLWfdKRuXQgeSKQi4C/HdBfEFTrC/2odn9ILivl0pHkmb2AT572yaijxmStf7tNLqtn38M0AIEEBf6fcqp1xzJXu23zsAT7jJTKElhLzfmWYq7xWOvfP19Wd9MaBNIROEKp1LpjGafdv5TPI9LpLjIpTGA7tec3inHGYq3POaywPqc5CCQj4KsBav92sbl2rEtk5MsmKQiEFHi2KluqmGv81fx3f3snZ/+HHHXUhcAMAd9spOadzDhtf0BG/6TwndkoCLQR8Lk3n1aMM+5qf84n20CzLAIIzC3wRD2l9h3NuO2/QFa7z03KMxCYVeAJevR3inHHW+3P23dWRR5EAIFgAj7b3V+MU/vOZtz23yerDyg4M1kIlLEE/KVTfjfrI0njjrPan+dzIygIINCDwNu0jtp3OJO2/yqZPaeHvmEV+Qr48r6XK65XTDq+an/+m/PtdjJHIC+BTZXuvYradzpN2n+a3PZQUBAYFHiy/nO+osmYqn2Ze+S24SAmvyOAQLcCXIvcbmf9TXXPo7vtImrPQOAA5Xi6ovYX8Tbt/2oG/UyKCBQl8HS1ps1GG3LZPymXxQpfgpfT56bO9euKfRSUegR8Hs3hijMUIbeDWuvistt6th1amoiAP6+8UhFjp+MX+v+j8GHTmYf+fB3wjoqjFB9WXKyIkeOk6zxTefocAa5jFkKhZW2167WKSxSTjg+eP7vZpbL0hIqCAAI9C/grcfveMX1f6/TtUCcpvoPauxXXKPrOd9L1+QSw9yu2VlDKEPARns8o+C6N8Nvf68sYIrQCgfwEfLnSMsWkL3Jtnv/IFkwra9m/U/yu55ybttdHBV6tWE9ByUtgB6X7HsXliqb9z3Kj7XxX0jUVFAQQiCTwMa23zx3VbgHa6YmAD8Xe3HPuTZ18xcUpimMUmyso6Qn4I7G9FD5681tF075mufHt/knOFAQQiCjgw+t9nnj36YBt3Vh1fV2R2073IuXscyCepJivoMQR2FKrPVrxJcWNitzGUc753i/vrRQUBBCILPBtrb+vnYknG88K3N5Xqr67emxDSCvnfbrC5zgcolhXQQkv8FBVuavCY+VzikWKkP1IXZN5fkP+lMwFVso8f9J/UMAnOZ3dI4Zf9A5X/DDgOvdUXb42f7OAdcaoyi8kPsfh54rzp+JC/fTnpZTxBHzb5p0U/rjJ4Rd+37zJX8xDSUPAH7ecm0YqZNFUgAlAU7n0lvuRUnpij2ndrXW9VPHFgOt8uOo6WdHmRMOA6QStarFq8yWRDl86ddlU+MoIH1Wprfg8EPf3NoptFf4oa3vFzootFf5Mn5KmgCf+B6eZGlkhUKfAQWp2jMOYH9R6vTMPVdZXRX7nHKMtMdbp26heofiCoobzCTZVO92/9ylieLPO9u4HqO8oCCCQmMA5yifGDs7r9bu3UMWTgF8rYrQlxjpvUFt3DIWXQT0+rJ/LFSAxxkPK6zwzg/FFighUKRDz9sB+J/seRaijAT4X4GpFyjvDELn55jT+fLu2sr8a7I+RQhhSR3+Oh9Y2UGkvAjkJ+MScmDvEn2r9WwQC85f1LIvcnq4tnxvIKsdqXlF433Y9dvqu/2c5DjJyRqAmgaeosX3vGGau7zrl8NhA6L4//8z6S/n/JwMZ5VzNlwvu31LG6XQ7+jzJOOcxTe4IRBU4VWuf3mhj/fQ7d98oJ0T5mCqJ1Y6u1rtIbeI2qg/eZtnnQHTlTL1hbH+gPqIggEAGAnsrxxR2fHcqjxDvGnx2/CWJtCmUq++jQHlQ4EX6EcqVesJb+jLVUEf0GPMIINCDwDe0jhR2hj4S4Jv8tC37qgLviFJoU9scfISGslxgJf0a+9yVtn1a8vInLe8qfkMAgRwEfDOdVK619iHehQHQjlcdJexo9wlgUVoVhxTStyWMz8E23Kt+2aG0wUZ7EKhB4ONq5ODGHPN3f4HOGi3RN9LySxNqUxPPU1oalLw4RwHS2V6nx/ZHSx5wtA2BkgX8PfY3KaY35tg/fbe7tuUYVRC7HW3W/7S2AAUv/4LM+7bNuEhx2T+qP9YteLzRNASKF3idWpjSzuUlLcX9efFpibVpXN9Fypt73AthSFlVj/tFZ1xPntet1auH9BMPI4BAJgL+GtVfKVLZWd6mXLZqaeflXU8qbRo3D98pkTJawIecx/Xked1ZXaB+YLI6eqzyVwSyEIj1RUHDdtAhzoI/SvLD6k/18RK/5TD0BuATJFPtv5ryOjB0x1IfAgjEE0jtjmsvDkDxEdWRy0750gDtraEKf8SzOKN+zWX8TZJniHN1ahirtBGBbAQ2VqYpnUG/RPms01LPH2/8p2KSnVus5364ZVtrWvwzmfRprLHU5Xp90vCGNQ22mtvKZzz19L6vxf/7hJrrncz/aJnP/Vr+eYocvqSEy//G72ysxrcK/czjVKFPxKQggEBhAj68erqiy3cQk9R9l3JZqGhbfCThXMUk6+7zub6DIZdTjd/Lmyfcl32Om77X9ePxu4hnIoBAjgI7Kmm/8Pa9cxm2vhMCIa6ten6UULsG23txoDbWVM01ifblYL+W9Lv3CdvXNMBoKwK1CrxdDU9l5+XbFW8bqCNWUz0nKFJp23Qenw/Uvpqq+VaC/TjdnyX+fFtNg4u2IlCzgE+e+6kilR3ZpwN3xmtUn7+JMJX2vTVw+2qo7r0J9V8q46irPM6WtfcJFAQQqETAh/tSeZH04cdNA7v7o45UJjlHBG5bDdW9UI3s6gWPepfb3iHn7WoYULQRAQT+WuD1+m8qO8Mu7pLnkx5fprg2Qjt94t/JisMUzoMymcDj9fRUxmbJeRwzWbfwbAQQKEXAL0y+5CqFHZwvU1y1I9j5qvdYxRWKrtt6idbxTsVWCkpzAa4E6H6s/kDdw+S0+RhlSQSyF3i4WpDKNwY+t2NN3/fiYMWJipsVISYD96ieMxT/XfEoBSWMwMqqxvd5CNFH1LGio7f5LcJ0FbXkKsDsL9eeC5v34arOZ13HLn5HckhPSfgFZm/FforHKnZWLFSsrhhWbtQfrlT4Xf5FCt974DyFz6WghBfwi5S/0poSVsATIm/zvosmBQEEEJjnW9XGfqd0n3Lwod+YZYFWvrXCX9zzaIVPltxM4UsMKf0KXK7VxR6TJa7/H/vtRtaGAAKpC/jz958rYu/w3pM6FPn1JnB+AuMx9vYQev2+MmaV3nqQFSGAQDYCPnHtFkXonc4k9fmw71rZiJFolwLnqPJJxg7PHe21VJ4Lu+ww6s5L4CF5pUu2HQtcpfqPVnhHGqv4M983xFo5601KwB8JUcIIeJt+sWJRmOqoBQEEShXwYXjvMGLFbVr3JqXi0q6xBU7TM2ONwdLW+86x1XkiAghULeCrQ/5DEXMn+Pmqe4DGW+B0RcwxWMq6vyFHb9MUBBBAYCyBtfWs3ypi7gSfOlamPKlUASYA7be/32hwcE5NqVsI7UKgQwFfAhfzpEDfwnf9DttH1WkLnKH0Yk5Ac1+3t13u85/2GI+aHScBRuVPfuWXKkPfnS/WyVi+/t4fBXD4UggUBCYQ8DZ7pOKyCZbhqQgggMAKAi/XIzHfDb1vhYx4oAaBn0QedzHHfNt1v6SGAUIbEUCgH4H3azVtd0ptln9ZP81kLQkJMAFots39r4T6kFQQQKAAAR+G/6KizYt4m2V9SPM5BTjShPEFmABMvr19fnxenokAAgiML+D74Z+maPNC3mbZe7Xurr8xUKugJCLABGCybe1H6rdVE+k70kAAgQIFfHngLxRtXsjbLOuviD22QFeatKLAWXqozVipaVl/MyWX+604hngEAQQCC2yg+nx9ccwd7Ce1ft7tBO7YxKo7O/IYizm+J1n3xXLictnEBi/pIFCygL+29yrFJDuq0M/1ux6ucy53lDEBmHv7ulLd78tlKQgggECvAttobdcpQr+wT1Lf7Vq/vzyIe1oIobDCtwGO3rYWq7+3LqzPaQ4CCGQk8EjleoNikhftLp7rowH7ZeRGqnML+LvruxgrJdR5vWy87VEQQACBqAI7ae2xjwRM79S/qVz2iKrBykMJ/EwVTfcrP5db+J3/jqGQqQcBBBBoK7CDKrhWkcqO+hTl8kzFygpKngJMAFbcnryNbZ9nd5I1AgiULOAT8v6gSGUS4Dx8ZOLDCn88wHcKCCGj4o91UhpLsXO5Rh7bZtR/pJq4ADvExDsow/S8g/K77y0TzH2JcjpNcarCny/7Usb7FKHKGqrI7852U+yu8EcRf1T8jYIyucB5WoSPcx50u0o/nqzwWf8UBIIIMAEIwkglMwR8WdL3FY+a8Xhq/71bCfka6ssV3sEuUtykuFmxVHGPwjcecqym8Av8mgrfDGnTgdhKv/uF35dGziy+O9tBMx/k/2MJ/FLPesxYzyz7Sb9S8w5R+GgWBQEEEEheYIEyPEsR+7Bp7PV7AkBpJnCBFovdf7HX79shr9uMj6UQGC3AtdOjffhrcwG/g/Yhy+80r6KIJdnGmndj7Ucovy26gxW3NCdkSQSGC7BzGm7DX9oL/ElVHKH4XPuqsq2Bbax519U8AThebM9SeBuiINCJADunTlipdEDAJ9kdrXiHwodTaytsY7X1eLv2eht5m+KlipAnqLbLiqURQACBlgJHavk7FbE/V+1z/T4PgtJM4NdarM++ir2uO9Rev+unINCLAO9OemFmJVMCJ+nnAQrfxrSWwjbWvKdrsvMZ/t42vt6ciyURmEygpg1sMhme3ZXAuap4L8X5Xa0gsXofmlg+OaVTyzkAvtzR24Tve0BBoDcBJgC9UbOiAYFr9Pu+ihMGHiv1V7ax5j1bwwTgs+LxtvCH5kwsiQACCOQp8Cql7RvyxP78tav1/yLPbkki60sLHhd3qW2vTEKZJBBAAIGIAj786aMCXb0Ix6y3lo86uhg+pU4Afi+sPbsAo04EJhHg8OQkWjy3K4Gfq2LfO/97Xa0gYr2cA9Acv8T9k8e4v9/A58JQEEAAAQSmBPyZ7xsVJX0kcDG921jgKi0Z8+hNyHX7kP8bFDWc19C4w1kQAQQQ2E0Ev1WE3AHHqus3dGdjgUWFjAGPZY9pCgIIIIDAGAIP03P+XRHrhTvUei8Zo608ZXYBf1Yeqh9i1eMx7LFMQQABBBCYUOAwPf9aRawdeNv1XjZhe3n6cgFfGtfWP9byzv3Q5U3hNwQQQACBJgLraqHjFbF25m3We2WTBrPMXwR8d7w29rGW9bX969CHCCCAAALhBPyOKrfLBReFa351NfmW0bFexJus12PzqdX1Eg1GAAEEehLwO6t/VdyvaLKT7nsZvyhQmgks0WJ991eT9XksflzBu/5m/cxSCCCAwEQCj9WzfS11kx12n8v4/AVKM4EbtViffdVkXb6Hha/rpyCAAAII9CjgG8W8VrFU0WTn3ccy/hyb0kzgJi3WRx81WYfH3GsUJd6sqFlvsRQCCCAQQWAjrfMzihQ/FvBhbEozgRQndh5jHmsecxQEEEAAgUQEdlUeP1Q0eUfX1TI+jE1pJnCLFuuqX5rU67HlMUZBAAEEEEhUwFcL+Ba8TXbyoZfxYWxKM4HbtFjo/mhSn8cS1/Q360OWQgABBHoX8Jfw+OtWY99NzoexKc0EbtdiTV6wQy3jseMx5LFEQQABBBDITGA15XuMItZd5W7NzCuldGNNAHzlhseMxw4FAQQQQCBzAe/Mj1UsVoR6hzhOPT6MTWkmsEyLjWMc6jm+YuMNivnN0mUpBBBAAIGUBVZXcn53d4Ui1AvHqHq4EVDz0dDXZM23a36dwmODggACCCBQuIA/1z1K0fXNhE4u3LHL5p2qykdNrtr+7TzV/1wFn/F32YvUjQACCCQscKBy+47iAUXbF5WZy79RdVKaCfy9Fpvp2fb/7uPvKZ7ULCWWQgABBBAoUWBrNeoDij8q2r7QeHmfALiegtJMwDfbuUMRoi98P4YPKrZVUBBAAAEEEJhVwCcM/q3iTEWbF59XzVo7D04i8KaWfXCOln+RghP7JlHnuQgggAAC83aWgY8KTHoZ4fuxCybwMdU0yUTMJw/63f4uwTKgIgQQQACBagUeopYfpDhBMerytAv198MUlLACPlnvUsWwiYA/KviC4hAFJ/UJgYLAXAIrzfUE/o4AAisIPEyPPFGxjWKBwl8Q43edP1P4trGUbgS8v9pdsadiU4UnZf5s35d0nq7wxIyCAAIIIIAAAggggAACCCCAAAIIIIAAAggggAACCCCAAAIIIIAAAggggAACCCCAAAIIIIAAAggggAACCCCAAAIIIIAAAggggAACCCCAAAIIIIAAAggggAACCCCAAAIIIIAAAggggAACCCCAAAIIIIAAAggggAACCCCAAAIIIIAAAggggAACCCCAAAIIIIAAAggggAACCCCAAAIIIIAAAggggAACCCCAAAIIIIAAAggggAACCCCAAAIIIIAAAggggAACCCCAAAIIIIAAAggggAACCCCAAAIIIIAAAggggAACCCCAAAIIIIAAAggggAACCCCAAAIIIIAAAggggAACCCCAAAIIIIAAAggggAACCCCAAAIIIIAAAggggAACCCCAAAIIIIAAAggggAACCCCAAAIIIIAAAggggAACCCCAAAIIIIAAAggggAACCCCAAAIIIIAAAggggAACCCCAAAIIIIAAAggggAACCCCAAAIIIIAAAggggAACCCCAAAIIIIAAAggggAACCCCAAAIIIIAAAggggAACCCCAAAIIIIAAAggggAACCCCAAAIIIIAAAggggAACCCCAAAIIIIAAAggggAACCCCAAAIIIIAAAggggAACCCCAAAIIIIAAAggggAACCCCAAAIIIIAAAggggAACCCCAAAIIIIAAAggggAACCCCAAAIIIIAAAggggAACCCCAAAIIIIAAAggggAACCCCAAAIIIIAAAggggAACCCCAAAIIIIAAAggggAACCCCAAAIIIIAAAggggAACCCCAAAIIIIAAAggggAACCCCAAAIIIIAAAggggAACCCCAAAIIIIAAAggggAACCCCAAAIIIIAAAggggAACCCCAAAIIIIAAAggggAACCCCAAAIIIIAAAggggAACCCCAAAIIIIAAAggggAACCCCAAAIIIIAAAggggAACCCCAAAIIIIAAAggggAACCCCAAAIIIIAAAggggAACCCCAAAIIIIAAAggggAACCCCAAAIIIIAAAggggAACCCCAAAIIIIAAAggggAACCCCAAAIIIIAAAggggAACCCCAAAIIIIAAAggggAACCCCAAAIIIIAAAggggAACCCCAAAIIIIAAAggggAACCCCAAAIIIIAAAggggAACCCCAAAIIIIAAAggggAACCCCAAAIIIIAAAggggAACCCCAAAIIIIAAAggggAACCCCAAAIIIIAAAggggAACCCCAAAIIIIAAAggggAACCCCAAAIIIIAAAggggAACCCCAAAIIIIAAAggggAACCCCAAAIIIIAAAggggAACCCAQReD/A9/VG3qfQ5EgAAAAAElFTkSuQmCC;" vertex="1" parent="1">
          <mxGeometry x="100" y="250" width="170" height="170" as="geometry" />
        </mxCell>
        <mxCell id="q4eiFpsEOsDT-pMDmDDZ-61" value="" style="endArrow=none;html=1;rounded=0;" edge="1" parent="1" source="q4eiFpsEOsDT-pMDmDDZ-59" target="q4eiFpsEOsDT-pMDmDDZ-60">
          <mxGeometry width="50" height="50" relative="1" as="geometry">
            <mxPoint x="110" y="570" as="sourcePoint" />
            <mxPoint x="160" y="520" as="targetPoint" />
          </mxGeometry>
        </mxCell>
        <mxCell id="q4eiFpsEOsDT-pMDmDDZ-63" value="&lt;div&gt;GIthub&lt;/div&gt;&lt;div&gt;Actions&lt;/div&gt;" style="text;strokeColor=none;align=center;fillColor=none;html=1;verticalAlign=middle;whiteSpace=wrap;rounded=0;" vertex="1" parent="1">
          <mxGeometry x="155" y="410" width="60" height="30" as="geometry" />
        </mxCell>
        <mxCell id="q4eiFpsEOsDT-pMDmDDZ-64" value="Java&lt;div&gt;Spring&lt;/div&gt;" style="text;strokeColor=none;align=center;fillColor=none;html=1;verticalAlign=middle;whiteSpace=wrap;rounded=0;" vertex="1" parent="1">
          <mxGeometry x="-60" y="410" width="60" height="30" as="geometry" />
        </mxCell>
      </root>
    </mxGraphModel>
  </diagram>
</mxfile>
